<?xml version="1.0" encoding="utf-8"?>

<!DOCTYPE svg PUBLIC "-//W3C//DTD SVG 1.1//EN" "http://www.w3.org/Graphics/SVG/1.1/DTD/svg11.dtd">
<svg version="1.1"
	 id="Layer_1" xmlns:svg="http://www.w3.org/2000/svg" xmlns:rdf="http://www.w3.org/1999/02/22-rdf-syntax-ns#" xmlns:cc="http://creativecommons.org/ns#" xmlns:dc="http://purl.org/dc/elements/1.1/"
	 xmlns="http://www.w3.org/2000/svg" xmlns:xlink="http://www.w3.org/1999/xlink" x="0px" y="0px" viewBox="456 -24 1648 1648"
	 enable-background="new 456 -24 1648 1648" xml:space="preserve">
<g id="g3">
	<g id="g5">
		<path id="path6703_3_" fill="none" stroke="#000000" stroke-width="7.0346" stroke-miterlimit="10" d="M1742.3561,337.644
			c-1.0876-1.8464-2.1599-3.7026-3.2163-5.5685c-13.0205-23.0149-23.6968-47.5428-31.6241-73.2428
			c-10.7404-34.7568-16.5366-71.6446-16.5366-109.8749c0-33.606,4.4963-66.1679,12.8712-97.1528
			c4.8162-17.8365,10.9108-35.1404,18.2202-51.8049c18.3693,2.0671,36.355,5.4554,53.8506,10.101
			c67.5957,17.9431,127.7115,54.4047,174.5511,103.6311c-4.0703-0.1918-8.1619-0.2983-12.296-0.2983
			c-20.2872,0-40.0416,2.3867-58.9863,6.8832c-35.46-28.1933-77.036-49.0132-122.4265-60.1584
			c-8.1191,28.1933-12.509,57.9848-12.509,88.7992c0,16.7924,1.2999,33.2864,3.8145,49.3755
			c3.4949,22.61,9.3978,44.4316,17.3678,65.2302c4.6299,12.049,9.967,23.7443,15.9611,35.0389
			c11.2947,5.9941,22.99,11.3311,35.0389,15.9611c20.7987,7.97,42.6202,13.8729,65.2302,17.3677
			c16.0891,2.5146,32.5833,3.8145,49.3756,3.8145c30.8143,0,60.6058-4.3899,88.7992-12.509
			c-11.1453-45.3905-31.9652-86.9666-60.1584-122.4266c4.4963-18.9447,6.8832-38.6992,6.8832-58.9864
			c0-4.1341-0.1066-8.2257-0.2983-12.2959c49.2263,46.8396,85.6879,106.9554,103.631,174.5511
			c4.6458,17.4956,8.0339,35.4813,10.1011,53.8506c-16.6646,7.3094-33.9684,13.4041-51.8049,18.2201
			c-30.9849,8.3749-63.5466,12.8713-97.1527,12.8713c-38.2303,0-75.1182-5.7963-109.875-16.5366
			c-25.7-7.9274-50.2279-18.6037-73.2428-31.6242C1746.0587,339.8039,1744.2025,338.7317,1742.3561,337.644z"/>
		<path id="path8" fill="none" stroke="#000000" stroke-width="7.0346" stroke-miterlimit="10" d="M1742.3561,1262.3561
			c1.8464-1.0876,3.7026-2.1599,5.5685-3.2163c23.0149-13.0205,47.5428-23.6968,73.2428-31.6241
			c34.7568-10.7404,71.6447-16.5366,109.875-16.5366c33.6061,0,66.1678,4.4963,97.1527,12.8712
			c17.8365,4.8162,35.1404,10.9108,51.8049,18.2202c-2.0671,18.3693-5.4553,36.355-10.1011,53.8506
			c-17.9431,67.5957-54.4047,127.7115-103.631,174.5511c0.1918-4.0703,0.2983-8.1619,0.2983-12.296
			c0-20.2872-2.3868-40.0416-6.8832-58.9863c28.1932-35.46,49.0132-77.036,60.1584-122.4265
			c-28.1934-8.1191-57.9849-12.509-88.7992-12.509c-16.7924,0-33.2865,1.2999-49.3756,3.8145
			c-22.61,3.4949-44.4315,9.3978-65.2302,17.3678c-12.049,4.6299-23.7443,9.967-35.0389,15.9611
			c-5.994,11.2947-11.3312,22.99-15.9611,35.0389c-7.97,20.7987-13.8729,42.6202-17.3678,65.2302
			c-2.5145,16.0891-3.8145,32.5833-3.8145,49.3756c0,30.8143,4.3899,60.6058,12.509,88.7992
			c45.3905-11.1453,86.9666-31.9652,122.4265-60.1584c18.9447,4.4963,38.6991,6.8832,58.9863,6.8832
			c4.1342,0,8.2257-0.1066,12.296-0.2983c-46.8396,49.2263-106.9554,85.6879-174.5511,103.631
			c-17.4956,4.6456-35.4813,8.0339-53.8506,10.1011c-7.3094-16.6646-13.4041-33.9684-18.2202-51.8049
			c-8.3749-30.9849-12.8712-63.5466-12.8712-97.1527c0-38.2303,5.7963-75.1182,16.5366-109.875
			c7.9274-25.7,18.6036-50.2279,31.6241-73.2428C1740.1962,1266.0587,1741.2684,1264.2025,1742.3561,1262.3561z"/>
		<path id="path10" fill="none" stroke="#000000" stroke-width="7.0346" stroke-miterlimit="10" d="M817.644,1262.3561
			c1.0877,1.8464,2.1599,3.7026,3.2163,5.5685c13.0205,23.0149,23.6968,47.5428,31.6242,73.2428
			c10.7403,34.7568,16.5366,71.6447,16.5366,109.875c0,33.6061-4.4964,66.1678-12.8713,97.1527
			c-4.8161,17.8365-10.9108,35.1404-18.2201,51.8049c-18.3693-2.0671-36.355-5.4554-53.8506-10.1011
			c-67.5957-17.9431-127.7115-54.4047-174.5511-103.631c4.0702,0.1918,8.1618,0.2983,12.2959,0.2983
			c20.2872,0,40.0417-2.3868,58.9864-6.8832c35.46,28.1932,77.036,49.0132,122.4266,60.1584
			c8.1191-28.1934,12.509-57.9849,12.509-88.7992c0-16.7924-1.2999-33.2865-3.8145-49.3756
			c-3.4948-22.61-9.3978-44.4315-17.3677-65.2302c-4.63-12.049-9.967-23.7443-15.9611-35.0389
			c-11.2946-5.994-22.99-11.3312-35.0389-15.9611c-20.7987-7.97-42.6202-13.8729-65.2302-17.3678
			c-16.0891-2.5145-32.5832-3.8145-49.3755-3.8145c-30.8144,0-60.6059,4.3899-88.7992,12.509
			c11.1452,45.3905,31.9652,86.9666,60.1584,122.4265c-4.4964,18.9447-6.8832,38.6991-6.8832,58.9863
			c0,4.1342,0.1066,8.2257,0.2983,12.296c-49.2264-46.8396-85.688-106.9554-103.6311-174.5511
			c-4.6456-17.4956-8.0339-35.4813-10.101-53.8506c16.6645-7.3094,33.9683-13.4041,51.8049-18.2202
			c30.9849-8.3749,63.5467-12.8712,97.1528-12.8712c38.2303,0,75.118,5.7963,109.8749,16.5366
			c25.7,7.9274,50.2279,18.6036,73.2428,31.6241C813.9413,1260.1962,815.7976,1261.2684,817.644,1262.3561z"/>
		<path id="path12" fill="none" stroke="#000000" stroke-width="7.0346" stroke-miterlimit="10" d="M817.644,337.644
			c-1.8464,1.0877-3.7026,2.1599-5.5685,3.2163c-23.0149,13.0205-47.5428,23.6968-73.2428,31.6242
			c-34.7568,10.7403-71.6446,16.5366-109.8749,16.5366c-33.606,0-66.1679-4.4964-97.1528-12.8713
			c-17.8365-4.8161-35.1404-10.9108-51.8049-18.2201c2.0671-18.3693,5.4554-36.355,10.101-53.8506
			c17.9431-67.5957,54.4047-127.7115,103.6311-174.5511c-0.1918,4.0702-0.2983,8.1618-0.2983,12.2959
			c0,20.2872,2.3867,40.0417,6.8832,58.9864c-28.1933,35.46-49.0132,77.036-60.1584,122.4266
			c28.1933,8.1191,57.9848,12.509,88.7992,12.509c16.7924,0,33.2864-1.2999,49.3755-3.8145
			c22.61-3.4948,44.4316-9.3978,65.2302-17.3677c12.049-4.63,23.7443-9.967,35.0389-15.9611
			c5.9941-11.2946,11.3311-22.99,15.9611-35.0389c7.97-20.7987,13.8729-42.6202,17.3677-65.2302
			c2.5146-16.0891,3.8145-32.5832,3.8145-49.3755c0-30.8144-4.3899-60.6059-12.509-88.7992
			c-45.3905,11.1452-86.9666,31.9652-122.4266,60.1584c-18.9447-4.4964-38.6992-6.8832-58.9864-6.8832
			c-4.1341,0-8.2257,0.1066-12.2959,0.2983c46.8396-49.2264,106.9554-85.688,174.5511-103.6311
			c17.4956-4.6456,35.4813-8.0339,53.8506-10.101c7.3094,16.6645,13.4041,33.9683,18.2201,51.8049
			c8.3749,30.9849,12.8713,63.5467,12.8713,97.1528c0,38.2303-5.7963,75.1181-16.5366,109.8749
			c-7.9274,25.7-18.6037,50.2279-31.6242,73.2428C819.8039,333.9413,818.7317,335.7976,817.644,337.644z"/>
		<path id="path6707_3_" fill="none" stroke="#000000" stroke-width="7.0346" stroke-miterlimit="10" d="M1748.0687,198.3333
			c-2.5146-16.0891-3.8145-32.5832-3.8145-49.3755c0-30.8144,4.3898-60.6059,12.509-88.7992
			c45.3905,11.1452,86.9664,31.9652,122.4265,60.1584C1827.7686,132.5064,1782.2927,160.2734,1748.0687,198.3333z"/>
		<path id="path6707_15_" fill="none" stroke="#000000" stroke-width="7.0346" stroke-miterlimit="10" d="M678.3333,331.9314
			c-16.0891,2.5146-32.5833,3.8145-49.3755,3.8145c-30.8144,0-60.6059-4.3899-88.7992-12.509
			c11.1452-45.3905,31.9652-86.9665,60.1584-122.4265C612.5064,252.2315,640.2734,297.7073,678.3333,331.9314z"/>
		<path id="path6707_11_" fill="none" stroke="#000000" stroke-width="7.0346" stroke-miterlimit="10" d="M811.9314,1401.6669
			c2.5146,16.0891,3.8145,32.5831,3.8145,49.3755c0,30.8145-4.3899,60.606-12.509,88.7992
			c-45.3905-11.1451-86.9665-31.9652-122.4265-60.1584C732.2315,1467.4938,777.7073,1439.7267,811.9314,1401.6669z"/>
		<path id="path6707_7_" fill="none" stroke="#000000" stroke-width="7.0346" stroke-miterlimit="10" d="M1881.6669,1268.0687
			c16.0891-2.5146,32.5831-3.8145,49.3755-3.8145c30.8145,0,60.606,4.3898,88.7992,12.509
			c-11.1451,45.3905-31.9652,86.9664-60.1584,122.4265C1947.4938,1347.7686,1919.7267,1302.2927,1881.6669,1268.0687z"/>
		<path id="path6707_5_" fill="none" stroke="#000000" stroke-width="7.0346" stroke-miterlimit="10" d="M1881.6669,331.9314
			c16.0891,2.5146,32.5831,3.8145,49.3755,3.8145c30.8145,0,60.606-4.3899,88.7992-12.509
			c-11.1451-45.3905-31.9652-86.9665-60.1584-122.4265C1947.4938,252.2315,1919.7267,297.7073,1881.6669,331.9314z"/>
		<path id="path6707_17_" fill="none" stroke="#000000" stroke-width="7.0346" stroke-miterlimit="10" d="M811.9314,198.3333
			c2.5146-16.0891,3.8145-32.5832,3.8145-49.3755c0-30.8144-4.3899-60.6059-12.509-88.7992
			c-45.3905,11.1452-86.9665,31.9652-122.4265,60.1584C732.2315,132.5064,777.7073,160.2734,811.9314,198.3333z"/>
		<path id="path6707_13_" fill="none" stroke="#000000" stroke-width="7.0346" stroke-miterlimit="10" d="M678.3333,1268.0687
			c-16.0891-2.5146-32.5833-3.8145-49.3755-3.8145c-30.8144,0-60.6059,4.3898-88.7992,12.509
			c11.1452,45.3905,31.9652,86.9664,60.1584,122.4265C612.5064,1347.7686,640.2734,1302.2927,678.3333,1268.0687z"/>
		<path id="path6707_9_" fill="none" stroke="#000000" stroke-width="7.0346" stroke-miterlimit="10" d="M1748.0687,1401.6669
			c-2.5146,16.0891-3.8145,32.5831-3.8145,49.3755c0,30.8145,4.3898,60.606,12.509,88.7992
			c45.3905-11.1451,86.9664-31.9652,122.4265-60.1584C1827.7686,1467.4938,1782.2927,1439.7267,1748.0687,1401.6669z"/>
		<path id="path6715_3_" fill="none" stroke="#000000" stroke-width="7.0346" stroke-miterlimit="10" d="M1683.8684,396.1317
			c-0.9343-8.8658-1.4135-17.8658-1.4135-26.9767c0-39.4876,9.0142-76.9082,25.0607-110.3224
			c7.9274,25.7,18.6038,50.2279,31.6241,73.2428c-0.5541,3.0047-1.0442,6.0308-1.4703,9.0781
			c-0.0635,0.4535-0.1255,0.9079-0.186,1.3631c0.4553-0.0605,0.9097-0.1225,1.3632-0.1859
			c3.0474-0.4262,6.0734-0.9164,9.0781-1.4704c23.0149,13.0205,47.5428,23.6969,73.2428,31.6242
			c-33.4143,16.0465-70.8348,25.0607-110.3225,25.0607C1701.7341,397.5452,1692.7341,397.066,1683.8684,396.1317z"/>
		<path id="path23" fill="none" stroke="#000000" stroke-width="7.0346" stroke-miterlimit="10" d="M1683.8684,1203.8684
			c8.8657-0.9343,17.8657-1.4135,26.9766-1.4135c39.4877,0,76.9082,9.0142,110.3225,25.0607
			c-25.7,7.9274-50.2279,18.6038-73.2428,31.6241c-3.0048-0.5541-6.0308-1.0442-9.0781-1.4703
			c-0.4535-0.0635-0.9078-0.1255-1.3632-0.186c0.0605,0.4553,0.1226,0.9097,0.186,1.3632c0.4261,3.0474,0.9163,6.0734,1.4703,9.0781
			c-13.0204,23.0149-23.6968,47.5428-31.6241,73.2428c-16.0465-33.4143-25.0607-70.8348-25.0607-110.3225
			C1682.455,1221.7341,1682.9341,1212.7341,1683.8684,1203.8684z"/>
		<path id="path25" fill="none" stroke="#000000" stroke-width="7.0346" stroke-miterlimit="10" d="M876.1317,1203.8684
			c0.9343,8.8657,1.4135,17.8657,1.4135,26.9766c0,39.4877-9.0142,76.9082-25.0607,110.3225
			c-7.9273-25.7-18.6037-50.2279-31.6242-73.2428c0.5541-3.0048,1.0442-6.0308,1.4704-9.0781
			c0.0634-0.4535,0.1254-0.9078,0.1859-1.3632c-0.4552,0.0605-0.9096,0.1226-1.3631,0.186
			c-3.0473,0.4261-6.0734,0.9163-9.0781,1.4703c-23.0149-13.0204-47.5428-23.6968-73.2428-31.6241
			c33.4143-16.0465,70.8348-25.0607,110.3224-25.0607C858.266,1202.455,867.2659,1202.9341,876.1317,1203.8684z"/>
		<path id="path27" fill="none" stroke="#000000" stroke-width="7.0346" stroke-miterlimit="10" d="M876.1317,396.1317
			c-8.8658,0.9343-17.8658,1.4135-26.9767,1.4135c-39.4876,0-76.9082-9.0142-110.3224-25.0607
			c25.7-7.9273,50.2279-18.6037,73.2428-31.6242c3.0047,0.5541,6.0308,1.0442,9.0781,1.4704
			c0.4535,0.0634,0.9079,0.1254,1.3631,0.1859c-0.0605-0.4552-0.1225-0.9096-0.1859-1.3631
			c-0.4262-3.0473-0.9164-6.0734-1.4704-9.0781c13.0205-23.0149,23.6969-47.5428,31.6242-73.2428
			c16.0465,33.4143,25.0607,70.8348,25.0607,110.3224C877.5452,378.266,877.066,387.2659,876.1317,396.1317z"/>
		<path id="path6723_3_" fill="none" stroke="#000000" stroke-width="7.0346" stroke-miterlimit="10" d="M1911.5269,168.4732
			c-61.8605,8.1252-114.8982,44.1742-146.0905,95.0905c-7.97-20.7987-13.8728-42.6202-17.3677-65.2302
			c34.224-38.0599,79.6998-65.8269,131.1211-78.0163c18.9447-4.4964,38.6991-6.8832,58.9863-6.8832
			c4.1342,0,8.2257,0.1066,12.2959,0.2983c4.9291,0.2346,9.8221,0.6095,14.675,1.1206c0.5111,4.853,0.886,9.7459,1.1206,14.675
			c0.1918,4.0702,0.2983,8.1618,0.2983,12.2959c0,20.2872-2.3867,40.0417-6.8832,58.9864
			c-12.1893,51.4213-39.9564,96.8971-78.0162,131.1211c-22.61-3.4949-44.4316-9.3978-65.2302-17.3677
			C1867.3527,283.3715,1903.4017,230.3337,1911.5269,168.4732z"/>
		<path id="path30" fill="none" stroke="#000000" stroke-width="7.0346" stroke-miterlimit="10" d="M1911.5269,1431.5269
			c-8.1251-61.8605-44.1742-114.8982-95.0905-146.0905c20.7986-7.97,42.6202-13.8728,65.2302-17.3677
			c38.0598,34.224,65.8269,79.6998,78.0162,131.1211c4.4965,18.9447,6.8832,38.6991,6.8832,58.9863
			c0,4.1342-0.1066,8.2257-0.2983,12.2959c-0.2346,4.9291-0.6095,9.8221-1.1206,14.675c-4.8529,0.5111-9.746,0.886-14.675,1.1206
			c-4.0702,0.1918-8.1617,0.2983-12.2959,0.2983c-20.2872,0-40.0416-2.3867-58.9863-6.8832
			c-51.4213-12.1893-96.8971-39.9564-131.1211-78.0162c3.4949-22.61,9.3977-44.4316,17.3677-65.2302
			C1796.6287,1387.3527,1849.6664,1423.4017,1911.5269,1431.5269z"/>
		<path id="path32" fill="none" stroke="#000000" stroke-width="7.0346" stroke-miterlimit="10" d="M648.4732,1431.5269
			c61.8605-8.1251,114.8983-44.1742,146.0903-95.0905c7.97,20.7986,13.8729,42.6202,17.3677,65.2302
			c-34.224,38.0598-79.6998,65.8269-131.1211,78.0162c-18.9447,4.4965-38.6991,6.8832-58.9864,6.8832
			c-4.1342,0-8.2257-0.1066-12.2959-0.2983c-4.9291-0.2346-9.822-0.6095-14.675-1.1206c-0.511-4.8529-0.886-9.746-1.1206-14.675
			c-0.1918-4.0702-0.2983-8.1617-0.2983-12.2959c0-20.2872,2.3867-40.0416,6.8832-58.9863
			c12.1894-51.4213,39.9565-96.8971,78.0163-131.1211c22.61,3.4949,44.4316,9.3977,65.2302,17.3677
			C692.6474,1316.6287,656.5984,1369.6664,648.4732,1431.5269z"/>
		<path id="path34" fill="none" stroke="#000000" stroke-width="7.0346" stroke-miterlimit="10" d="M648.4732,168.4732
			c8.1252,61.8605,44.1742,114.8983,95.0905,146.0904c-20.7987,7.97-42.6202,13.8729-65.2302,17.3677
			c-38.0599-34.224-65.8269-79.6998-78.0163-131.1211c-4.4964-18.9447-6.8832-38.6991-6.8832-58.9864
			c0-4.1342,0.1066-8.2257,0.2983-12.2959c0.2346-4.9291,0.6095-9.822,1.1206-14.675c4.853-0.5111,9.7459-0.886,14.675-1.1206
			c4.0702-0.1918,8.1618-0.2983,12.2959-0.2983c20.2872,0,40.0417,2.3867,58.9864,6.8832
			c51.4213,12.1894,96.8971,39.9565,131.1211,78.0163c-3.4949,22.61-9.3978,44.4316-17.3677,65.2302
			C763.3715,212.6474,710.3337,176.5984,648.4732,168.4732z"/>
		<path id="path6727_3_" fill="none" stroke="#000000" stroke-width="7.0346" stroke-miterlimit="10" d="M1737.4849,342.5152
			c0.0597-0.4547,0.1212-0.9087,0.1846-1.3616c0.4261-3.0473,0.9163-6.0734,1.4703-9.0781c1.0564,1.8658,2.1287,3.722,3.2163,5.5685
			c1.8464,1.0877,3.7028,2.1599,5.5685,3.2163c-3.0046,0.554-6.0308,1.0442-9.0781,1.4704
			C1738.3936,342.394,1737.9396,342.4555,1737.4849,342.5152z"/>
		<path id="path37" fill="none" stroke="#000000" stroke-width="7.0346" stroke-miterlimit="10" d="M1737.4849,1257.4849
			c0.4547,0.0597,0.9087,0.1212,1.3616,0.1846c3.0474,0.4261,6.0735,0.9163,9.0781,1.4703
			c-1.8657,1.0564-3.722,2.1287-5.5685,3.2163c-1.0876,1.8464-2.1599,3.7028-3.2163,5.5685
			c-0.5541-3.0046-1.0442-6.0308-1.4703-9.0781C1737.6061,1258.3936,1737.5446,1257.9396,1737.4849,1257.4849z"/>
		<path id="path39" fill="none" stroke="#000000" stroke-width="7.0346" stroke-miterlimit="10" d="M822.5152,1257.4849
			c-0.0597,0.4547-0.1212,0.9087-0.1845,1.3616c-0.4262,3.0474-0.9164,6.0735-1.4704,9.0781
			c-1.0564-1.8657-2.1286-3.722-3.2163-5.5685c-1.8464-1.0876-3.7027-2.1599-5.5685-3.2163
			c3.0047-0.5541,6.0308-1.0442,9.0781-1.4703C821.6066,1257.6061,822.0605,1257.5446,822.5152,1257.4849z"/>
		<path id="path41" fill="none" stroke="#000000" stroke-width="7.0346" stroke-miterlimit="10" d="M822.5152,342.5152
			c-0.4547-0.0597-0.9087-0.1212-1.3616-0.1845c-3.0473-0.4262-6.0734-0.9164-9.0781-1.4704
			c1.8658-1.0564,3.722-2.1286,5.5685-3.2163c1.0877-1.8464,2.1599-3.7027,3.2163-5.5685c0.554,3.0047,1.0442,6.0308,1.4704,9.0781
			C822.394,341.6066,822.4555,342.0605,822.5152,342.5152z"/>
		<path id="path6751_3_" fill="none" stroke="#000000" stroke-width="7.0346" stroke-miterlimit="10" d="M1781.3976,298.6025
			c-5.9941-11.2946-11.3312-22.9899-15.9611-35.0388c31.1921-50.9163,84.2299-86.9653,146.0903-95.0905
			c-8.1251,61.8605-44.1742,114.8982-95.0905,146.0904C1804.3875,309.9337,1792.6921,304.5966,1781.3976,298.6025z"/>
		<path id="path44" fill="none" stroke="#000000" stroke-width="7.0346" stroke-miterlimit="10" d="M1781.3976,1301.3976
			c11.2946-5.9941,22.9899-11.3312,35.0388-15.9611c50.9163,31.1921,86.9653,84.2299,95.0905,146.0903
			c-61.8605-8.1251-114.8982-44.1742-146.0903-95.0905C1770.0664,1324.3875,1775.4034,1312.6921,1781.3976,1301.3976z"/>
		<path id="path46" fill="none" stroke="#000000" stroke-width="7.0346" stroke-miterlimit="10" d="M778.6025,1301.3976
			c5.994,11.2946,11.3311,22.9899,15.9611,35.0388c-31.1922,50.9163-84.2299,86.9653-146.0904,95.0905
			c8.1252-61.8605,44.1742-114.8982,95.0905-146.0903C755.6126,1290.0664,767.308,1295.4034,778.6025,1301.3976z"/>
		<path id="path48" fill="none" stroke="#000000" stroke-width="7.0346" stroke-miterlimit="10" d="M778.6025,298.6025
			c-11.2946,5.994-22.9899,11.3311-35.0388,15.9611c-50.9163-31.1922-86.9653-84.2299-95.0905-146.0904
			c61.8605,8.1252,114.8982,44.1742,146.0904,95.0905C789.9337,275.6126,784.5966,287.308,778.6025,298.6025z"/>
	</g>
	<g id="g50">
		<path id="path6691_2_" fill="none" stroke="#000000" stroke-width="7.0346" stroke-miterlimit="10" d="M1433.7311,646.2691
			c-7.6586-6.9734-15.027-14.2603-22.0848-21.8403c-17.7726-19.0939-33.5847-40.063-47.074-62.5665
			c-8.1404-13.5745-15.4498-27.7031-21.8428-42.3219c18.3906-2.0671,36.3763-5.4554,53.8506-10.101
			c10.7404,22.2051,23.9739,42.9612,39.3171,61.9485c10.7899,13.3684,22.6431,25.8381,35.4229,37.2922
			c11.4541,12.7798,23.924,24.6329,37.2924,35.4229c18.9873,15.3433,39.7433,28.5768,61.9484,39.3171
			c-4.6455,17.4742-8.0338,35.46-10.101,53.8506c-14.6187-6.3931-28.7473-13.7024-42.3219-21.8429
			c-22.5034-13.4893-43.4727-29.3014-62.5664-47.074C1447.9913,661.2961,1440.7043,653.9276,1433.7311,646.2691z"/>
		<path id="path53" fill="none" stroke="#000000" stroke-width="7.0346" stroke-miterlimit="10" d="M1433.7311,953.731
			c6.9734-7.6585,14.2604-15.027,21.8403-22.0848c19.0939-17.7726,40.0631-33.5847,62.5664-47.074
			c13.5746-8.1404,27.7032-15.4498,42.3219-21.8428c2.0671,18.3906,5.4554,36.3763,10.101,53.8506
			c-22.2051,10.7403-42.9611,23.9739-61.9484,39.3171c-13.3684,10.79-25.8383,22.6431-37.2924,35.4229
			c-12.7798,11.454-24.6328,23.9239-35.4229,37.2922c-15.3434,18.9873-28.5768,39.7433-39.3171,61.9484
			c-17.4742-4.6455-35.46-8.0338-53.8506-10.101c6.3931-14.6187,13.7024-28.7473,21.8428-42.3219
			c13.4894-22.5034,29.3014-43.4725,47.074-62.5663C1418.704,967.9913,1426.0724,960.7043,1433.7311,953.731z"/>
		<path id="path55" fill="none" stroke="#000000" stroke-width="7.0346" stroke-miterlimit="10" d="M1126.2692,953.731
			c7.6584,6.9734,15.027,14.2604,22.0847,21.8404c17.7726,19.0938,33.5847,40.063,47.074,62.5663
			c8.1405,13.5746,15.4498,27.7032,21.8429,42.3219c-18.3906,2.0671-36.3763,5.4554-53.8506,10.101
			c-10.7402-22.2051-23.9739-42.9611-39.317-61.9484c-10.79-13.3683-22.6432-25.8382-35.423-37.2922
			c-11.4541-12.7798-23.9238-24.6329-37.2921-35.4229c-18.9873-15.3433-39.7433-28.5768-61.9485-39.3171
			c4.6456-17.4743,8.0339-35.46,10.101-53.8506c14.6188,6.393,28.7474,13.7024,42.3218,21.8428
			c22.5035,13.4893,43.4727,29.3014,62.5665,47.074C1112.0088,938.704,1119.2958,946.0724,1126.2692,953.731z"/>
		<path id="path57" fill="none" stroke="#000000" stroke-width="7.0346" stroke-miterlimit="10" d="M1126.2692,646.2691
			c-6.9734,7.6585-14.2604,15.027-21.8405,22.0848c-19.0939,17.7726-40.063,33.5847-62.5665,47.074
			c-13.5745,8.1405-27.7031,15.4498-42.3218,21.8429c-2.0671-18.3906-5.4554-36.3764-10.101-53.8506
			c22.2051-10.7403,42.9612-23.9739,61.9485-39.3171c13.3684-10.7899,25.838-22.6431,37.2921-35.4229
			c12.7798-11.4541,24.6329-23.9238,35.423-37.2922c15.3433-18.9873,28.5768-39.7433,39.317-61.9485
			c17.4742,4.6457,35.4601,8.0339,53.8506,10.101c-6.3931,14.6188-13.7024,28.7474-21.8429,42.3219
			c-13.4893,22.5035-29.3014,43.4726-47.074,62.5665C1141.2961,632.0088,1133.9276,639.2957,1126.2692,646.2691z"/>
		<path id="path6699_2_" fill="none" stroke="#000000" stroke-width="7.0346" stroke-miterlimit="10" d="M1280,219.8682
			c3.4794-0.1944,6.9717-0.3407,10.4768-0.438c3.4949-0.0853,6.9897-0.1492,10.5272-0.1492c14.1073,0,28.0228,0.8098,41.7252,2.3441
			c-7.288,16.6645-13.4041,33.9683-18.2201,51.8049c-7.7568-0.5754-15.599-0.8737-23.5051-0.8737
			c-7.0559,0-14.0598,0.2319-21.004,0.6865c-6.944-0.4546-13.9481-0.6865-21.004-0.6865c-7.9061,0-15.7482,0.2983-23.5051,0.8737
			c-4.8159-17.8366-10.9321-35.1404-18.2202-51.8049c13.7025-1.5343,27.6179-2.3441,41.7252-2.3441
			c3.5375,0,7.0323,0.0639,10.5272,0.1492C1273.0283,219.5276,1276.5208,219.6738,1280,219.8682z"/>
		<path id="path60" fill="none" stroke="#000000" stroke-width="7.0346" stroke-miterlimit="10" d="M1860.1318,800
			c0.1945,3.4793,0.3407,6.9717,0.438,10.4768c0.0852,3.4949,0.1492,6.9897,0.1492,10.5272c0,14.1073-0.8098,28.0228-2.3441,41.7252
			c-16.6646-7.288-33.9684-13.4041-51.8049-18.2201c0.5754-7.7569,0.8738-15.599,0.8738-23.5051
			c0-7.0559-0.2319-14.0599-0.6865-21.004c0.4546-6.944,0.6865-13.9481,0.6865-21.004c0-7.9061-0.2983-15.7482-0.8738-23.5051
			c17.8365-4.816,35.1404-10.9321,51.8049-18.2202c1.5343,13.7025,2.3441,27.6179,2.3441,41.7252
			c0,3.5375-0.064,7.0323-0.1492,10.5272C1860.4725,793.0283,1860.3263,796.5207,1860.1318,800z"/>
		<path id="path62" fill="none" stroke="#000000" stroke-width="7.0346" stroke-miterlimit="10" d="M1280,1380.1318
			c-3.4791,0.1945-6.9717,0.3407-10.4768,0.438c-3.4948,0.0852-6.9896,0.1492-10.5272,0.1492
			c-14.1073,0-28.0228-0.8098-41.7252-2.3441c7.2881-16.6646,13.4042-33.9684,18.2202-51.8049
			c7.757,0.5754,15.599,0.8738,23.5051,0.8738c7.0559,0,14.0599-0.2319,21.004-0.6865c6.9441,0.4546,13.9481,0.6865,21.004,0.6865
			c7.9061,0,15.7483-0.2983,23.5051-0.8738c4.816,17.8365,10.9321,35.1404,18.2201,51.8049
			c-13.7024,1.5343-27.6179,2.3441-41.7252,2.3441c-3.5375,0-7.0322-0.064-10.5272-0.1492
			C1286.9717,1380.4725,1283.4794,1380.3263,1280,1380.1318z"/>
		<path id="path64" fill="none" stroke="#000000" stroke-width="7.0346" stroke-miterlimit="10" d="M699.8682,800
			c-0.1944-3.4792-0.3407-6.9717-0.438-10.4768c-0.0853-3.4948-0.1492-6.9897-0.1492-10.5272
			c0-14.1073,0.8098-28.0228,2.3441-41.7252c16.6645,7.2881,33.9683,13.4041,51.8049,18.2202
			c-0.5754,7.7569-0.8737,15.599-0.8737,23.5051c0,7.0559,0.2319,14.0599,0.6865,21.004
			c-0.4546,6.9441-0.6865,13.9481-0.6865,21.004c0,7.9061,0.2983,15.7482,0.8737,23.5051
			c-17.8366,4.816-35.1404,10.9321-51.8049,18.2201c-1.5343-13.7024-2.3441-27.6179-2.3441-41.7252
			c0-3.5375,0.0639-7.0323,0.1492-10.5272C699.5276,806.9717,699.6738,803.4793,699.8682,800z"/>
		<path id="path6703_2_" fill="none" stroke="#000000" stroke-width="7.0346" stroke-miterlimit="10" d="M1565.0576,329.1347
			c13.8728-20.3085,25.4655-42.2793,34.4158-65.5712c7.97-20.7987,13.8728-42.6202,17.3677-65.2302
			c2.5146-16.0891,3.8146-32.5832,3.8146-49.3755c0-30.8144-4.3899-60.6059-12.509-88.7992
			c-45.3905,11.1452-86.9664,31.9652-122.4265,60.1584c-18.9446-4.4964-38.6992-6.8832-58.9865-6.8832
			c-4.134,0-8.2256,0.1066-12.2959,0.2983c46.8396-49.2264,106.9554-85.688,174.551-103.6311
			c17.4956-4.6456,35.4813-8.0339,53.8507-10.101c7.3093,16.6645,13.4041,33.9683,18.2201,51.8049
			c8.3749,30.9849,12.8713,63.5467,12.8713,97.1528c0,38.2303-5.7964,75.1181-16.5366,109.8749
			c-7.9274,25.7-18.6038,50.2279-31.6243,73.2428c-7.5651,13.3614-15.9399,26.2327-25.0393,38.5074
			C1589.8412,355.9002,1577.9288,342.0486,1565.0576,329.1347z"/>
		<path id="path6703_9_" fill="none" stroke="#000000" stroke-width="7.0346" stroke-miterlimit="10" d="M809.1347,514.9424
			c-20.3085-13.873-42.2793-25.4656-65.5712-34.4158c-20.7987-7.97-42.6202-13.8729-65.2302-17.3677
			c-16.0891-2.5146-32.5832-3.8145-49.3755-3.8145c-30.8145,0-60.6059,4.3899-88.7992,12.509
			c11.1452,45.3905,31.9651,86.9666,60.1584,122.4266c-4.4964,18.9446-6.8832,38.6991-6.8832,58.9863
			c0,4.1342,0.1066,8.2257,0.2983,12.296c-49.2264-46.8397-85.688-106.9553-103.6311-174.5511
			c-4.6456-17.4956-8.0339-35.4814-10.101-53.8506c16.6645-7.3094,33.9683-13.4041,51.8049-18.2202
			c30.9849-8.3749,63.5467-12.8713,97.1528-12.8713c38.2303,0,75.1181,5.7964,109.8749,16.5367
			c25.7,7.9273,50.2279,18.6037,73.2428,31.6242c13.3614,7.5651,26.2327,15.94,38.5074,25.0394
			C835.9002,490.1588,822.0486,502.0713,809.1347,514.9424z"/>
		<path id="path6703_7_" fill="none" stroke="#000000" stroke-width="7.0346" stroke-miterlimit="10" d="M994.9424,1270.8654
			c-13.8729,20.3085-25.4656,42.2793-34.4158,65.5712c-7.97,20.7987-13.8729,42.6202-17.3677,65.2302
			c-2.5146,16.0891-3.8145,32.5833-3.8145,49.3756c0,30.8143,4.3899,60.6058,12.509,88.7992
			c45.3905-11.1453,86.9666-31.9652,122.4266-60.1584c18.9446,4.4963,38.6991,6.8832,58.9863,6.8832
			c4.1342,0,8.2257-0.1066,12.296-0.2983c-46.8397,49.2263-106.9554,85.6879-174.5511,103.631
			c-17.4956,4.6456-35.4814,8.0339-53.8506,10.1011c-7.3094-16.6646-13.4041-33.9684-18.2202-51.8049
			c-8.3749-30.9849-12.8713-63.5466-12.8713-97.1527c0-38.2303,5.7964-75.1182,16.5367-109.875
			c7.9273-25.7,18.6037-50.2279,31.6242-73.2428c7.5651-13.3615,15.94-26.2327,25.0394-38.5073
			C970.1589,1244.0999,982.0713,1257.9514,994.9424,1270.8654z"/>
		<path id="path6703_5_" fill="none" stroke="#000000" stroke-width="7.0346" stroke-miterlimit="10" d="M1750.8654,1085.0575
			c20.3085,13.8729,42.2793,25.4656,65.5712,34.4159c20.7987,7.97,42.6202,13.8728,65.2302,17.3677
			c16.0891,2.5146,32.5833,3.8146,49.3756,3.8146c30.8143,0,60.6058-4.3899,88.7992-12.509
			c-11.1453-45.3906-31.9652-86.9666-60.1584-122.4266c4.4963-18.9446,6.8832-38.6992,6.8832-58.9864
			c0-4.1341-0.1066-8.2256-0.2983-12.2959c49.2263,46.8396,85.6879,106.9553,103.631,174.551
			c4.6458,17.4956,8.0339,35.4813,10.1011,53.8507c-16.6646,7.3093-33.9684,13.4041-51.8049,18.2201
			c-30.9849,8.3749-63.5466,12.8713-97.1527,12.8713c-38.2303,0-75.1182-5.7964-109.875-16.5366
			c-25.7-7.9274-50.2279-18.6038-73.2428-31.6243c-13.3615-7.5651-26.2327-15.9399-38.5073-25.0393
			C1724.0999,1109.8412,1737.9514,1097.9288,1750.8654,1085.0575z"/>
		<path id="path6703_4_" fill="none" stroke="#000000" stroke-width="7.0346" stroke-miterlimit="10" d="M1750.8654,514.9424
			c20.3085-13.873,42.2793-25.4656,65.5712-34.4158c20.7987-7.97,42.6202-13.8729,65.2302-17.3677
			c16.0891-2.5146,32.5833-3.8145,49.3756-3.8145c30.8143,0,60.6058,4.3899,88.7992,12.509
			c-11.1453,45.3905-31.9652,86.9666-60.1584,122.4266c4.4963,18.9446,6.8832,38.6991,6.8832,58.9863
			c0,4.1342-0.1066,8.2257-0.2983,12.296c49.2263-46.8397,85.6879-106.9553,103.631-174.5511
			c4.6458-17.4956,8.0339-35.4814,10.1011-53.8506c-16.6646-7.3094-33.9684-13.4041-51.8049-18.2202
			c-30.9849-8.3749-63.5466-12.8713-97.1527-12.8713c-38.2303,0-75.1182,5.7964-109.875,16.5367
			c-25.7,7.9273-50.2279,18.6037-73.2428,31.6242c-13.3615,7.5651-26.2327,15.94-38.5073,25.0394
			C1724.0999,490.1588,1737.9514,502.0713,1750.8654,514.9424z"/>
		<path id="path6703_10_" fill="none" stroke="#000000" stroke-width="7.0346" stroke-miterlimit="10" d="M994.9424,329.1347
			c-13.8729-20.3085-25.4656-42.2793-34.4158-65.5712c-7.97-20.7987-13.8729-42.6202-17.3677-65.2302
			c-2.5146-16.0891-3.8145-32.5832-3.8145-49.3755c0-30.8144,4.3899-60.6059,12.509-88.7992
			c45.3905,11.1452,86.9666,31.9652,122.4266,60.1584c18.9446-4.4964,38.6991-6.8832,58.9863-6.8832
			c4.1342,0,8.2257,0.1066,12.296,0.2983c-46.8397-49.2264-106.9554-85.688-174.5511-103.6311
			C953.5157,5.4554,935.5299,2.0671,917.1607,0c-7.3094,16.6645-13.4041,33.9683-18.2202,51.8049
			c-8.3749,30.9849-12.8713,63.5467-12.8713,97.1528c0,38.2303,5.7964,75.1181,16.5367,109.8749
			c7.9273,25.7,18.6037,50.2279,31.6242,73.2428c7.5651,13.3614,15.94,26.2327,25.0394,38.5074
			C970.1589,355.9002,982.0713,342.0486,994.9424,329.1347z"/>
		<path id="path6703_8_" fill="none" stroke="#000000" stroke-width="7.0346" stroke-miterlimit="10" d="M809.1347,1085.0575
			c-20.3085,13.8729-42.2793,25.4656-65.5712,34.4159c-20.7987,7.97-42.6202,13.8728-65.2302,17.3677
			c-16.0891,2.5146-32.5832,3.8146-49.3755,3.8146c-30.8145,0-60.6059-4.3899-88.7992-12.509
			c11.1452-45.3906,31.9651-86.9666,60.1584-122.4266c-4.4964-18.9446-6.8832-38.6992-6.8832-58.9864
			c0-4.1341,0.1066-8.2256,0.2983-12.2959c-49.2264,46.8396-85.688,106.9553-103.6311,174.551
			c-4.6456,17.4956-8.0339,35.4813-10.101,53.8507c16.6645,7.3093,33.9683,13.4041,51.8049,18.2201
			c30.9849,8.3749,63.5467,12.8713,97.1528,12.8713c38.2303,0,75.1181-5.7964,109.8749-16.5366
			c25.7-7.9274,50.2279-18.6038,73.2428-31.6243c13.3614-7.5651,26.2327-15.9399,38.5074-25.0393
			C835.9002,1109.8412,822.0486,1097.9288,809.1347,1085.0575z"/>
		<path id="path6703_6_" fill="none" stroke="#000000" stroke-width="7.0346" stroke-miterlimit="10" d="M1565.0576,1270.8654
			c13.8728,20.3085,25.4655,42.2793,34.4158,65.5712c7.97,20.7987,13.8728,42.6202,17.3677,65.2302
			c2.5146,16.0891,3.8146,32.5833,3.8146,49.3756c0,30.8143-4.3899,60.6058-12.509,88.7992
			c-45.3905-11.1453-86.9664-31.9652-122.4265-60.1584c-18.9446,4.4963-38.6992,6.8832-58.9865,6.8832
			c-4.134,0-8.2256-0.1066-12.2959-0.2983c46.8396,49.2263,106.9554,85.6879,174.551,103.631
			c17.4956,4.6456,35.4813,8.0339,53.8507,10.1011c7.3093-16.6646,13.4041-33.9684,18.2201-51.8049
			c8.3749-30.9849,12.8713-63.5466,12.8713-97.1527c0-38.2303-5.7964-75.1182-16.5366-109.875
			c-7.9274-25.7-18.6038-50.2279-31.6243-73.2428c-7.5651-13.3615-15.9399-26.2327-25.0393-38.5073
			C1589.8412,1244.0999,1577.9288,1257.9514,1565.0576,1270.8654z"/>
		<path id="path6707_2_" fill="none" stroke="#000000" stroke-width="7.0346" stroke-miterlimit="10" d="M1485.7201,120.317
			c35.4601-28.1933,77.036-49.0132,122.4265-60.1584c8.1191,28.1933,12.509,57.9848,12.509,88.7992
			c0,16.7924-1.2999,33.2864-3.8146,49.3755C1582.6171,160.2734,1537.1414,132.5064,1485.7201,120.317z"/>
		<path id="path6707_14_" fill="none" stroke="#000000" stroke-width="7.0346" stroke-miterlimit="10" d="M600.317,594.2801
			c-28.1933-35.46-49.0132-77.036-60.1584-122.4265c28.1933-8.1191,57.9848-12.509,88.7992-12.509
			c16.7924,0,33.2864,1.2999,49.3755,3.8145C640.2734,497.383,612.5064,542.8588,600.317,594.2801z"/>
		<path id="path6707_10_" fill="none" stroke="#000000" stroke-width="7.0346" stroke-miterlimit="10" d="M1074.28,1479.6831
			c-35.46,28.1932-77.0359,49.0133-122.4265,60.1584c-8.1191-28.1932-12.509-57.9847-12.509-88.7992
			c0-16.7924,1.2999-33.2864,3.8145-49.3755C977.383,1439.7267,1022.8588,1467.4938,1074.28,1479.6831z"/>
		<path id="path6707_6_" fill="none" stroke="#000000" stroke-width="7.0346" stroke-miterlimit="10" d="M1959.6831,1005.72
			c28.1932,35.46,49.0133,77.0359,60.1584,122.4266c-28.1932,8.1191-57.9847,12.509-88.7992,12.509
			c-16.7924,0-33.2864-1.2999-49.3755-3.8146C1919.7267,1102.6171,1947.4938,1057.1412,1959.6831,1005.72z"/>
		<path id="path6707_4_" fill="none" stroke="#000000" stroke-width="7.0346" stroke-miterlimit="10" d="M1959.6831,594.2801
			c28.1932-35.46,49.0133-77.036,60.1584-122.4265c-28.1932-8.1191-57.9847-12.509-88.7992-12.509
			c-16.7924,0-33.2864,1.2999-49.3755,3.8145C1919.7267,497.383,1947.4938,542.8588,1959.6831,594.2801z"/>
		<path id="path6707_16_" fill="none" stroke="#000000" stroke-width="7.0346" stroke-miterlimit="10" d="M1074.28,120.317
			c-35.46-28.1933-77.0359-49.0132-122.4265-60.1584c-8.1191,28.1933-12.509,57.9848-12.509,88.7992
			c0,16.7924,1.2999,33.2864,3.8145,49.3755C977.383,160.2734,1022.8588,132.5064,1074.28,120.317z"/>
		<path id="path6707_12_" fill="none" stroke="#000000" stroke-width="7.0346" stroke-miterlimit="10" d="M600.317,1005.72
			c-28.1933,35.46-49.0132,77.0359-60.1584,122.4266c28.1933,8.1191,57.9848,12.509,88.7992,12.509
			c16.7924,0,33.2864-1.2999,49.3755-3.8146C640.2734,1102.6171,612.5064,1057.1412,600.317,1005.72z"/>
		<path id="path6707_8_" fill="none" stroke="#000000" stroke-width="7.0346" stroke-miterlimit="10" d="M1485.7201,1479.6831
			c35.4601,28.1932,77.036,49.0133,122.4265,60.1584c8.1191-28.1932,12.509-57.9847,12.509-88.7992
			c0-16.7924-1.2999-33.2864-3.8146-49.3755C1582.6171,1439.7267,1537.1414,1467.4938,1485.7201,1479.6831z"/>
		<path id="path82" fill="none" stroke="#000000" stroke-width="7.0346" stroke-miterlimit="10" d="M1471.3199,991.3199
			c11.4541-12.7797,23.9238-24.6329,37.2924-35.4229c1.9335,43.3571,17.5055,83.1692,42.531,115.2461
			c-32.077-25.0255-71.8892-40.5975-115.2462-42.531C1446.687,1015.2437,1458.5403,1002.774,1471.3199,991.3199z"/>
		<path id="path84" fill="none" stroke="#000000" stroke-width="7.0346" stroke-miterlimit="10" d="M1088.6802,991.3199
			c12.7798,11.4541,24.6328,23.9238,35.4229,37.2923c-43.3571,1.9335-83.1693,17.5055-115.2462,42.531
			c25.0255-32.077,40.5975-71.8891,42.5309-115.2462C1064.7563,966.687,1077.2261,978.5402,1088.6802,991.3199z"/>
		<path id="path86" fill="none" stroke="#000000" stroke-width="7.0346" stroke-miterlimit="10" d="M1088.6802,608.6802
			c-11.454,12.7798-23.9238,24.6329-37.2924,35.4229c-1.9335-43.3571-17.5055-83.1693-42.5309-115.2462
			c32.077,25.0255,71.8891,40.5975,115.2462,42.531C1113.313,584.7563,1101.46,597.2261,1088.6802,608.6802z"/>
		<path id="path88" fill="none" stroke="#000000" stroke-width="7.0346" stroke-miterlimit="10" d="M1471.3199,608.6802
			c-12.7798-11.454-24.6329-23.9238-35.423-37.2923c43.3572-1.9335,83.1693-17.5055,115.2462-42.531
			c-25.0255,32.077-40.5975,71.8891-42.531,115.2462C1495.2438,633.313,1482.774,621.46,1471.3199,608.6802z"/>
		<path id="path90" fill="none" stroke="#000000" stroke-width="7.0346" stroke-miterlimit="10" d="M1586.4249,1106.4249
			c5.6726,4.4255,11.587,8.5554,17.7205,12.3665c20.3724,12.6582,43.153,21.8003,67.489,26.5737
			c12.6796,2.4933,25.7853,3.8146,39.2107,3.8146c6.3291,0,12.5942-0.2985,18.7742-0.8738c3.09-0.277,6.1799-0.6393,9.2273-1.0656
			c3.0474-0.4261,6.0734-0.9163,9.0781-1.4703c23.0149,13.0205,47.5428,23.6968,73.2428,31.6241
			c-33.4143,16.0465-70.8348,25.0608-110.3225,25.0608c-10.203,0-20.267-0.601-30.1591-1.769
			c1.1681,9.8921,1.769,19.9561,1.769,30.1591c0,39.4877-9.0143,76.9082-25.0608,110.3225
			c-7.9274-25.7-18.6036-50.2279-31.6241-73.2428c0.5541-3.0048,1.0442-6.0308,1.4703-9.0781
			c0.4263-3.0474,0.7886-6.1373,1.0656-9.2273c0.5753-6.1799,0.8738-12.4451,0.8738-18.7742
			c0-13.4254-1.3213-26.5311-3.8146-39.2107c-4.7734-24.3361-13.9155-47.1166-26.5737-67.489
			C1594.9803,1118.012,1590.8505,1112.0975,1586.4249,1106.4249z"/>
		<path id="path92" fill="none" stroke="#000000" stroke-width="7.0346" stroke-miterlimit="10" d="M973.5752,1106.4249
			c-4.4255,5.6726-8.5554,11.587-12.3665,17.7205c-12.6582,20.3724-21.8002,43.153-26.5737,67.489
			c-2.4933,12.6796-3.8145,25.7853-3.8145,39.2107c0,6.3291,0.2984,12.5942,0.8737,18.7742c0.277,3.09,0.6393,6.1799,1.0655,9.2273
			c0.4262,3.0474,0.9163,6.0734,1.4704,9.0781c-13.0205,23.0149-23.6968,47.5428-31.6242,73.2428
			c-16.0465-33.4143-25.0607-70.8348-25.0607-110.3225c0-10.203,0.6009-20.267,1.769-30.1591
			c-9.8922,1.1681-19.9561,1.769-30.1591,1.769c-39.4876,0-76.9082-9.0143-110.3224-25.0608
			c25.7-7.9274,50.2279-18.6036,73.2428-31.6241c3.0047,0.5541,6.0308,1.0442,9.0781,1.4703
			c3.0473,0.4263,6.1373,0.7886,9.2273,1.0656c6.1799,0.5753,12.4451,0.8738,18.7742,0.8738
			c13.4254,0,26.5311-1.3213,39.2106-3.8146c24.3361-4.7734,47.1166-13.9155,67.4891-26.5737
			C961.988,1114.9803,967.9026,1110.8505,973.5752,1106.4249z"/>
		<path id="path94" fill="none" stroke="#000000" stroke-width="7.0346" stroke-miterlimit="10" d="M973.5752,493.5752
			c-5.6725-4.4255-11.5871-8.5554-17.7204-12.3665c-20.3725-12.6582-43.153-21.8002-67.4891-26.5737
			c-12.6795-2.4933-25.7852-3.8145-39.2106-3.8145c-6.3291,0-12.5943,0.2984-18.7742,0.8737c-3.09,0.277-6.18,0.6393-9.2273,1.0655
			s-6.0734,0.9163-9.0781,1.4704c-23.0149-13.0205-47.5428-23.6968-73.2428-31.6242
			c33.4143-16.0465,70.8348-25.0607,110.3224-25.0607c10.203,0,20.267,0.6009,30.1591,1.769
			c-1.1681-9.8922-1.769-19.9561-1.769-30.1591c0-39.4876,9.0142-76.9082,25.0607-110.3224
			c7.9274,25.7,18.6037,50.2279,31.6242,73.2428c-0.5541,3.0047-1.0442,6.0308-1.4704,9.0781s-0.7885,6.1373-1.0655,9.2273
			c-0.5753,6.1799-0.8737,12.4451-0.8737,18.7742c0,13.4254,1.3212,26.5311,3.8145,39.2106
			c4.7735,24.3361,13.9155,47.1166,26.5737,67.4891C965.0197,481.988,969.1495,487.9026,973.5752,493.5752z"/>
		<path id="path6715_2_" fill="none" stroke="#000000" stroke-width="7.0346" stroke-miterlimit="10" d="M1586.4249,493.5752
			c4.4255-5.6725,8.5554-11.5871,12.3665-17.7204c12.6582-20.3725,21.8003-43.153,26.5737-67.4891
			c2.4933-12.6795,3.8146-25.7852,3.8146-39.2106c0-6.3291-0.2985-12.5943-0.8738-18.7742c-0.277-3.09-0.6393-6.18-1.0656-9.2273
			c-0.4261-3.0473-0.9163-6.0734-1.4703-9.0781c13.0205-23.0149,23.6968-47.5428,31.6241-73.2428
			c16.0465,33.4143,25.0608,70.8348,25.0608,110.3224c0,10.203-0.601,20.267-1.769,30.1591
			c9.8921-1.1681,19.9561-1.769,30.1591-1.769c39.4877,0,76.9082,9.0142,110.3225,25.0607
			c-25.7,7.9274-50.2279,18.6037-73.2428,31.6242c-3.0048-0.5541-6.0308-1.0442-9.0781-1.4704s-6.1373-0.7885-9.2273-1.0655
			c-6.1799-0.5753-12.4451-0.8737-18.7742-0.8737c-13.4254,0-26.5311,1.3212-39.2107,3.8145
			c-24.3361,4.7735-47.1166,13.9155-67.489,26.5737C1598.012,485.0196,1592.0975,489.1495,1586.4249,493.5752z"/>
		<path id="path6719_2_" fill="none" stroke="#000000" stroke-width="7.0346" stroke-miterlimit="10" d="M1280,508.6349
			c4.3696,4.5975,8.9537,8.9909,13.7373,13.165c20.4152,17.7939,44.4316,31.5602,70.8348,40.063
			c13.4893,22.5035,29.3014,43.4726,47.074,62.5665c-48.7842-2.8525-93.9407-19.4395-131.6461-45.947
			c-37.7056,26.5074-82.8619,43.0945-131.6461,45.947c17.7726-19.0939,33.5847-40.063,47.074-62.5665
			c26.4033-8.5027,50.4197-22.269,70.8347-40.063C1271.0464,517.6258,1275.6305,513.2324,1280,508.6349z"/>
		<path id="path98" fill="none" stroke="#000000" stroke-width="7.0346" stroke-miterlimit="10" d="M1571.3654,800
			c-4.5975,4.3696-8.991,8.9537-13.1649,13.7373c-17.7939,20.4151-31.5603,44.4316-40.0631,70.8348
			c-22.5034,13.4893-43.4727,29.3014-62.5664,47.074c2.8524-48.7842,19.4395-93.9406,45.947-131.6461
			c-26.5077-37.7055-43.0945-82.8619-45.947-131.6461c19.0938,17.7726,40.063,33.5847,62.5664,47.074
			c8.5028,26.4033,22.2692,50.4197,40.0631,70.8348C1562.3744,791.0464,1566.7678,795.6305,1571.3654,800z"/>
		<path id="path100" fill="none" stroke="#000000" stroke-width="7.0346" stroke-miterlimit="10" d="M1280,1091.3652
			c-4.3695-4.5975-8.9536-8.991-13.7372-13.1649c-20.415-17.7939-44.4315-31.5603-70.8347-40.0631
			c-13.4894-22.5034-29.3014-43.4725-47.074-62.5663c48.7842,2.8525,93.9406,19.4395,131.6461,45.947
			c37.7056-26.5076,82.8618-43.0945,131.6461-45.947c-17.7726,19.0938-33.5847,40.063-47.074,62.5663
			c-26.4032,8.5028-50.4197,22.2692-70.8348,40.0631C1288.9537,1082.3743,1284.3696,1086.7677,1280,1091.3652z"/>
		<path id="path102" fill="none" stroke="#000000" stroke-width="7.0346" stroke-miterlimit="10" d="M988.6349,800
			c4.5975-4.3695,8.9909-8.9536,13.165-13.7372c17.7939-20.4151,31.5601-44.4316,40.0629-70.8348
			c22.5035-13.4893,43.4727-29.3014,62.5665-47.074c-2.8524,48.7842-19.4395,93.9406-45.947,131.6461
			c26.5074,37.7056,43.0945,82.8619,45.947,131.6461c-19.0939-17.7726-40.063-33.5847-62.5665-47.074
			c-8.5027-26.4032-22.2689-50.4197-40.0629-70.8348C997.6258,808.9537,993.2324,804.3696,988.6349,800z"/>
		<path id="path6723_2_" fill="none" stroke="#000000" stroke-width="7.0346" stroke-miterlimit="10" d="M1280,159.8342
			c38.4221-27.0137,84.5836-43.7284,134.4377-46.1018c4.0703-0.1918,8.1617-0.2983,12.296-0.2983
			c20.2872,0,40.0416,2.3867,58.9863,6.8832c51.4213,12.1894,96.897,39.9565,131.121,78.0163
			c-3.4949,22.61-9.3977,44.4316-17.3677,65.2302c-33.7338-55.0653-93.0186-92.7416-161.3813-96.5135
			c-3.7505-0.2131-7.5438-0.341-11.3583-0.341c-20.9053,0-41.0646,3.1752-60.0306,9.0568
			c-28.6621,8.8863-54.5964,23.9526-76.2263,43.6644c-3.5051,0.0973-6.9976,0.2435-10.4769,0.438
			c-3.4791-0.1944-6.9717-0.3407-10.4768-0.438c-21.6298-19.7118-47.5641-34.7781-76.2263-43.6644
			c-18.9659-5.8816-39.1254-9.0568-60.0305-9.0568c-3.8146,0-7.6078,0.1279-11.3583,0.341
			c-68.3629,3.7719-127.6475,41.4482-161.3814,96.5135c-7.97-20.7987-13.8729-42.6202-17.3677-65.2302
			c34.224-38.0599,79.6998-65.8269,131.1211-78.0163c18.9447-4.4964,38.6992-6.8832,58.9863-6.8832
			c4.1343,0,8.2257,0.1066,12.2959,0.2983C1195.4164,116.1057,1241.5779,132.8205,1280,159.8342z"/>
		<path id="path105" fill="none" stroke="#000000" stroke-width="7.0346" stroke-miterlimit="10" d="M1920.1659,800
			c27.0137,38.4221,43.7284,84.5836,46.1018,134.4377c0.1918,4.0703,0.2983,8.1618,0.2983,12.296
			c0,20.2872-2.3867,40.0417-6.8832,58.9863c-12.1893,51.4212-39.9564,96.897-78.0162,131.121
			c-22.61-3.4949-44.4316-9.3977-65.2302-17.3677c55.0653-33.7339,92.7416-93.0187,96.5134-161.3814
			c0.2131-3.7505,0.3409-7.5438,0.3409-11.3583c0-20.9052-3.1752-41.0646-9.0568-60.0306
			c-8.8864-28.6621-23.9525-54.5965-43.6644-76.2263c-0.0973-3.5051-0.2435-6.9976-0.4379-10.4769
			c0.1943-3.4792,0.3406-6.9717,0.4379-10.4768c19.7119-21.6298,34.7781-47.5641,43.6644-76.2263
			c5.8816-18.966,9.0568-39.1254,9.0568-60.0306c0-3.8145-0.1278-7.6077-0.3409-11.3583
			c-3.7719-68.3629-41.4481-127.6475-96.5134-161.3814c20.7986-7.97,42.6202-13.8729,65.2302-17.3677
			c38.0598,34.224,65.8269,79.6998,78.0162,131.1211c4.4965,18.9447,6.8832,38.6992,6.8832,58.9863
			c0,4.1342-0.1066,8.2257-0.2983,12.2959C1963.8943,715.4164,1947.1796,761.5779,1920.1659,800z"/>
		<path id="path107" fill="none" stroke="#000000" stroke-width="7.0346" stroke-miterlimit="10" d="M1280,1440.1659
			c-38.4221,27.0137-84.5836,43.7284-134.4376,46.1018c-4.0702,0.1918-8.1617,0.2983-12.2959,0.2983
			c-20.2872,0-40.0417-2.3867-58.9865-6.8832c-51.4213-12.1893-96.897-39.9564-131.121-78.0162
			c3.4948-22.61,9.3977-44.4316,17.3677-65.2302c33.7339,55.0653,93.0186,92.7416,161.3814,96.5134
			c3.7505,0.2131,7.5438,0.3409,11.3583,0.3409c20.9052,0,41.0646-3.1752,60.0305-9.0568
			c28.6621-8.8864,54.5966-23.9525,76.2263-43.6644c3.5051-0.0973,6.9977-0.2435,10.4768-0.4379
			c3.4794,0.1943,6.9717,0.3406,10.4769,0.4379c21.6299,19.7119,47.5641,34.7781,76.2263,43.6644
			c18.9661,5.8816,39.1255,9.0568,60.0306,9.0568c3.8145,0,7.6077-0.1278,11.3583-0.3409
			c68.3628-3.7719,127.6476-41.4481,161.3813-96.5134c7.97,20.7986,13.8728,42.6202,17.3677,65.2302
			c-34.224,38.0598-79.6997,65.8269-131.121,78.0162c-18.9446,4.4965-38.6991,6.8832-58.9863,6.8832
			c-4.1343,0-8.2257-0.1066-12.296-0.2983C1364.5836,1483.8943,1318.4221,1467.1796,1280,1440.1659z"/>
		<path id="path109" fill="none" stroke="#000000" stroke-width="7.0346" stroke-miterlimit="10" d="M639.8342,800
			c-27.0137-38.4221-43.7284-84.5836-46.1018-134.4377c-0.1918-4.0702-0.2983-8.1617-0.2983-12.2959
			c0-20.2872,2.3867-40.0416,6.8832-58.9863c12.1894-51.4213,39.9565-96.8971,78.0163-131.1211
			c22.61,3.4948,44.4316,9.3977,65.2302,17.3677c-55.0653,33.7339-92.7416,93.0186-96.5135,161.3813
			c-0.2131,3.7505-0.341,7.5438-0.341,11.3583c0,20.9052,3.1752,41.0646,9.0568,60.0306
			c8.8864,28.6621,23.9526,54.5965,43.6644,76.2263c0.0973,3.5051,0.2435,6.9976,0.438,10.4768
			c-0.1944,3.4793-0.3407,6.9717-0.438,10.4769c-19.7118,21.6298-34.7781,47.5641-43.6644,76.2263
			c-5.8816,18.966-9.0568,39.1254-9.0568,60.0306c0,3.8145,0.1279,7.6077,0.341,11.3583
			c3.7719,68.3627,41.4482,127.6475,96.5135,161.3814c-20.7987,7.97-42.6202,13.8728-65.2302,17.3677
			c-38.0599-34.224-65.8269-79.6998-78.0163-131.121c-4.4964-18.9446-6.8832-38.6991-6.8832-58.9863
			c0-4.1342,0.1066-8.2257,0.2983-12.296C596.1057,884.5836,612.8205,838.4221,639.8342,800z"/>
		<path id="path6727_2_" fill="none" stroke="#000000" stroke-width="7.0346" stroke-miterlimit="10" d="M1600.7306,370.5829
			c9.0995-12.2746,17.4744-25.1459,25.0394-38.5074c0.5541,3.0047,1.0442,6.0308,1.4705,9.0781
			c0.4261,3.0473,0.7671,6.1373,1.0654,9.2273c0.5754,6.1799,0.8738,12.4451,0.8738,18.7742
			c0,13.4254-1.3213,26.5311-3.8146,39.2106C1617.9066,395.26,1609.6809,382.6444,1600.7306,370.5829z"/>
		<path id="path6727_9_" fill="none" stroke="#000000" stroke-width="7.0346" stroke-miterlimit="10" d="M850.5829,479.2693
			c-12.2746-9.0994-25.1459-17.4743-38.5074-25.0394c3.0047-0.5541,6.0308-1.0442,9.0781-1.4704s6.1373-0.7672,9.2273-1.0655
			c6.1799-0.5754,12.4451-0.8737,18.7742-0.8737c13.4254,0,26.5311,1.3212,39.2106,3.8145
			C875.2599,462.0934,862.6444,470.3191,850.5829,479.2693z"/>
		<path id="path6727_7_" fill="none" stroke="#000000" stroke-width="7.0346" stroke-miterlimit="10" d="M959.2693,1229.4172
			c-9.0994,12.2747-17.4743,25.1459-25.0394,38.5073c-0.5541-3.0046-1.0442-6.0308-1.4704-9.0781
			c-0.4262-3.0472-0.7672-6.1372-1.0655-9.2272c-0.5754-6.1799-0.8737-12.4452-0.8737-18.7743
			c0-13.4253,1.3212-26.531,3.8145-39.2106C942.0934,1204.7401,950.3192,1217.3557,959.2693,1229.4172z"/>
		<path id="path6727_5_" fill="none" stroke="#000000" stroke-width="7.0346" stroke-miterlimit="10" d="M1709.4172,1120.7306
			c12.2747,9.0995,25.1459,17.4744,38.5073,25.0394c-3.0046,0.5541-6.0308,1.0442-9.0781,1.4705
			c-3.0472,0.4261-6.1372,0.7671-9.2272,1.0654c-6.1799,0.5754-12.4452,0.8738-18.7743,0.8738
			c-13.4253,0-26.531-1.3213-39.2106-3.8146C1684.7401,1137.9066,1697.3557,1129.6809,1709.4172,1120.7306z"/>
		<path id="path6727_4_" fill="none" stroke="#000000" stroke-width="7.0346" stroke-miterlimit="10" d="M1709.4172,479.2693
			c12.2747-9.0994,25.1459-17.4743,38.5073-25.0394c-3.0046-0.5541-6.0308-1.0442-9.0781-1.4704
			c-3.0472-0.4262-6.1372-0.7672-9.2272-1.0655c-6.1799-0.5754-12.4452-0.8737-18.7743-0.8737
			c-13.4253,0-26.531,1.3212-39.2106,3.8145C1684.7401,462.0934,1697.3557,470.3191,1709.4172,479.2693z"/>
		<path id="path6727_10_" fill="none" stroke="#000000" stroke-width="7.0346" stroke-miterlimit="10" d="M959.2693,370.5829
			c-9.0994-12.2746-17.4743-25.1459-25.0394-38.5074c-0.5541,3.0047-1.0442,6.0308-1.4704,9.0781s-0.7672,6.1373-1.0655,9.2273
			c-0.5754,6.1799-0.8737,12.4451-0.8737,18.7742c0,13.4254,1.3212,26.5311,3.8145,39.2106
			C942.0934,395.26,950.3192,382.6444,959.2693,370.5829z"/>
		<path id="path6727_8_" fill="none" stroke="#000000" stroke-width="7.0346" stroke-miterlimit="10" d="M850.5829,1120.7306
			c-12.2746,9.0995-25.1459,17.4744-38.5074,25.0394c3.0047,0.5541,6.0308,1.0442,9.0781,1.4705
			c3.0473,0.4261,6.1373,0.7671,9.2273,1.0654c6.1799,0.5754,12.4451,0.8738,18.7742,0.8738
			c13.4254,0,26.5311-1.3213,39.2106-3.8146C875.2599,1137.9066,862.6444,1129.6809,850.5829,1120.7306z"/>
		<path id="path6727_6_" fill="none" stroke="#000000" stroke-width="7.0346" stroke-miterlimit="10" d="M1600.7306,1229.4172
			c9.0995,12.2747,17.4744,25.1459,25.0394,38.5073c0.5541-3.0046,1.0442-6.0308,1.4705-9.0781
			c0.4261-3.0472,0.7671-6.1372,1.0654-9.2272c0.5754-6.1799,0.8738-12.4452,0.8738-18.7743c0-13.4253-1.3213-26.531-3.8146-39.2106
			C1617.9066,1204.7401,1609.6809,1217.3557,1600.7306,1229.4172z"/>
		<path id="path6731_2_" fill="none" stroke="#000000" stroke-width="7.0346" stroke-miterlimit="10" d="M1565.0576,412.031
			c-10.101-14.7466-21.374-28.6195-33.7339-41.4482c-41.2137-42.8333-94.2546-74.1805-153.8802-88.7992
			c5.0079-17.3464,11.4222-34.0749,19.1365-50.0575c64.7189,17.176,122.5544,51.3148,168.4778,97.4085
			c12.8712,12.9139,24.7836,26.7655,35.6731,41.4482c8.9502,12.0615,17.1759,24.6771,24.6344,37.7828
			c-4.7734,24.3362-13.9155,47.1166-26.5737,67.4891C1589.9478,453.2021,1578.5895,431.8281,1565.0576,412.031z"/>
		<path id="path6731_8_" fill="none" stroke="#000000" stroke-width="7.0346" stroke-miterlimit="10" d="M892.0309,514.9424
			c-14.7466,10.101-28.6194,21.374-41.4482,33.7339c-42.8333,41.2137-74.1805,94.2545-88.7992,153.8802
			c-17.3464-5.0079-34.0749-11.4222-50.0575-19.1365c17.176-64.7188,51.3148-122.5543,97.4085-168.4777
			c12.9139-12.8713,26.7655-24.7837,41.4482-35.6731c12.0615-8.9503,24.6771-17.176,37.7828-24.6345
			c24.3362,4.7735,47.1166,13.9155,67.4891,26.5737C933.202,490.0522,911.8281,501.4106,892.0309,514.9424z"/>
		<path id="path6731_6_" fill="none" stroke="#000000" stroke-width="7.0346" stroke-miterlimit="10" d="M994.9424,1187.9691
			c10.101,14.7466,21.374,28.6194,33.7338,41.4481c41.2137,42.8333,94.2546,74.1804,153.8804,88.7992
			c-5.0079,17.3464-11.4222,34.0748-19.1365,50.0575c-64.7189-17.176-122.5544-51.3148-168.4777-97.4086
			c-12.8713-12.9139-24.7836-26.7655-35.6731-41.4481c-8.9503-12.0615-17.176-24.6771-24.6345-37.7828
			c4.7735-24.3362,13.9155-47.1166,26.5737-67.4891C970.0522,1146.798,981.4106,1168.172,994.9424,1187.9691z"/>
		<path id="path6731_4_" fill="none" stroke="#000000" stroke-width="7.0346" stroke-miterlimit="10" d="M1667.9691,1085.0575
			c14.7466-10.101,28.6194-21.374,41.4481-33.7339c42.8333-41.2137,74.1804-94.2545,88.7992-153.8801
			c17.3464,5.0079,34.0748,11.4222,50.0575,19.1365c-17.176,64.7188-51.3148,122.5543-97.4086,168.4777
			c-12.9139,12.8713-26.7655,24.7837-41.4481,35.6732c-12.0615,8.9502-24.6771,17.1759-37.7828,24.6344
			c-24.3362-4.7734-47.1166-13.9155-67.4891-26.5737C1626.798,1109.9478,1648.172,1098.5895,1667.9691,1085.0575z"/>
		<path id="path6731_3_" fill="none" stroke="#000000" stroke-width="7.0346" stroke-miterlimit="10" d="M1667.9691,514.9424
			c14.7466,10.101,28.6194,21.374,41.4481,33.7339c42.8333,41.2137,74.1804,94.2545,88.7992,153.8802
			c17.3464-5.0079,34.0748-11.4222,50.0575-19.1365c-17.176-64.7188-51.3148-122.5543-97.4086-168.4777
			c-12.9139-12.8713-26.7655-24.7837-41.4481-35.6731c-12.0615-8.9503-24.6771-17.176-37.7828-24.6345
			c-24.3362,4.7735-47.1166,13.9155-67.4891,26.5737C1626.798,490.0522,1648.172,501.4106,1667.9691,514.9424z"/>
		<path id="path6731_9_" fill="none" stroke="#000000" stroke-width="7.0346" stroke-miterlimit="10" d="M994.9424,412.031
			c10.101-14.7466,21.374-28.6195,33.7338-41.4482c41.2137-42.8333,94.2546-74.1805,153.8804-88.7992
			c-5.0079-17.3464-11.4222-34.0749-19.1365-50.0575c-64.7189,17.176-122.5544,51.3148-168.4777,97.4085
			c-12.8713,12.9139-24.7836,26.7655-35.6731,41.4482c-8.9503,12.0615-17.176,24.6771-24.6345,37.7828
			c4.7735,24.3362,13.9155,47.1166,26.5737,67.4891C970.0522,453.2021,981.4106,431.8281,994.9424,412.031z"/>
		<path id="path6731_7_" fill="none" stroke="#000000" stroke-width="7.0346" stroke-miterlimit="10" d="M892.0309,1085.0575
			c-14.7466-10.101-28.6194-21.374-41.4482-33.7339c-42.8333-41.2137-74.1805-94.2545-88.7992-153.8801
			c-17.3464,5.0079-34.0749,11.4222-50.0575,19.1365c17.176,64.7188,51.3148,122.5543,97.4085,168.4777
			c12.9139,12.8713,26.7655,24.7837,41.4482,35.6732c12.0615,8.9502,24.6771,17.1759,37.7828,24.6344
			c24.3362-4.7734,47.1166-13.9155,67.4891-26.5737C933.202,1109.9478,911.8281,1098.5895,892.0309,1085.0575z"/>
		<path id="path6731_5_" fill="none" stroke="#000000" stroke-width="7.0346" stroke-miterlimit="10" d="M1565.0576,1187.9691
			c-10.101,14.7466-21.374,28.6194-33.7339,41.4481c-41.2137,42.8333-94.2546,74.1804-153.8802,88.7992
			c5.0079,17.3464,11.4222,34.0748,19.1365,50.0575c64.7189-17.176,122.5544-51.3148,168.4778-97.4086
			c12.8712-12.9139,24.7836-26.7655,35.6731-41.4481c8.9502-12.0615,17.1759-24.6771,24.6344-37.7828
			c-4.7734-24.3362-13.9155-47.1166-26.5737-67.4891C1589.9478,1146.798,1578.5895,1168.172,1565.0576,1187.9691z"/>
		<path id="path6735_2_" fill="none" stroke="#000000" stroke-width="7.0346" stroke-miterlimit="10" d="M1364.5721,561.8622
			c-26.4032-8.5027-50.4197-22.269-70.8348-40.063c2.4081,0.0427,4.8374,0.0853,7.2668,0.0853
			c14.1072,0,28.0228-0.8098,41.7252-2.3441C1349.1222,534.1592,1356.4316,548.2878,1364.5721,561.8622z"/>
		<path id="path6735_8_" fill="none" stroke="#000000" stroke-width="7.0346" stroke-miterlimit="10" d="M1041.8622,715.4279
			c-8.5027,26.4033-22.2689,50.4197-40.0629,70.8348c0.0427-2.4081,0.0853-4.8374,0.0853-7.2668
			c0-14.1073-0.8098-28.0228-2.3441-41.7252C1014.1592,730.8777,1028.2877,723.5684,1041.8622,715.4279z"/>
		<path id="path6735_6_" fill="none" stroke="#000000" stroke-width="7.0346" stroke-miterlimit="10" d="M1195.428,1038.1377
			c26.4033,8.5028,50.4197,22.269,70.8347,40.063c-2.4081-0.0426-4.8374-0.0852-7.2667-0.0852
			c-14.1073,0-28.0228,0.8098-41.7252,2.3441C1210.8777,1065.8408,1203.5685,1051.7123,1195.428,1038.1377z"/>
		<path id="path6735_4_" fill="none" stroke="#000000" stroke-width="7.0346" stroke-miterlimit="10" d="M1518.1378,884.5721
			c8.5028-26.4032,22.269-50.4197,40.063-70.8348c-0.0426,2.4081-0.0852,4.8374-0.0852,7.2668
			c0,14.1072,0.8098,28.0228,2.3441,41.7252C1545.8409,869.1222,1531.7124,876.4316,1518.1378,884.5721z"/>
		<path id="path6735_3_" fill="none" stroke="#000000" stroke-width="7.0346" stroke-miterlimit="10" d="M1518.1378,715.4279
			c8.5028,26.4033,22.269,50.4197,40.063,70.8348c-0.0426-2.4081-0.0852-4.8374-0.0852-7.2668
			c0-14.1073,0.8098-28.0228,2.3441-41.7252C1545.8409,730.8777,1531.7124,723.5684,1518.1378,715.4279z"/>
		<path id="path6735_9_" fill="none" stroke="#000000" stroke-width="7.0346" stroke-miterlimit="10" d="M1195.428,561.8622
			c26.4033-8.5027,50.4197-22.269,70.8347-40.063c-2.4081,0.0427-4.8374,0.0853-7.2667,0.0853
			c-14.1073,0-28.0228-0.8098-41.7252-2.3441C1210.8777,534.1592,1203.5685,548.2878,1195.428,561.8622z"/>
		<path id="path6735_7_" fill="none" stroke="#000000" stroke-width="7.0346" stroke-miterlimit="10" d="M1041.8622,884.5721
			c-8.5027-26.4032-22.2689-50.4197-40.0629-70.8348c0.0427,2.4081,0.0853,4.8374,0.0853,7.2668
			c0,14.1072-0.8098,28.0228-2.3441,41.7252C1014.1592,869.1222,1028.2877,876.4316,1041.8622,884.5721z"/>
		<path id="path6735_5_" fill="none" stroke="#000000" stroke-width="7.0346" stroke-miterlimit="10" d="M1364.5721,1038.1377
			c-26.4032,8.5028-50.4197,22.269-70.8348,40.063c2.4081-0.0426,4.8374-0.0852,7.2668-0.0852
			c14.1072,0,28.0228,0.8098,41.7252,2.3441C1349.1222,1065.8408,1356.4316,1051.7123,1364.5721,1038.1377z"/>
		<path id="path6739_2_" fill="none" stroke="#000000" stroke-width="7.0346" stroke-miterlimit="10" d="M1551.1429,528.8572
			c-32.077,25.0254-71.8889,40.5972-115.2458,42.5308c-15.3433-18.9873-28.5768-39.7433-39.317-61.9485
			c64.7188-17.176,122.5544-51.3148,168.4777-97.4085c13.5319,19.7971,24.8901,41.1711,33.7338,63.8238
			c-3.8109,6.1332-7.9407,12.0476-12.3661,17.72c5.6724-4.4254,11.5868-8.5552,17.72-12.3661
			c22.6527,8.8437,44.0267,20.202,63.8237,33.7339c-46.0938,45.9233-80.2325,103.7589-97.4083,168.4777
			c-22.2051-10.7403-42.9612-23.9739-61.9485-39.3171C1510.5458,600.7462,1526.1176,560.9341,1551.1429,528.8572z"/>
		<path id="path136" fill="none" stroke="#000000" stroke-width="7.0346" stroke-miterlimit="10" d="M1551.1429,1071.1428
			c-25.0254-32.077-40.5972-71.8889-42.5308-115.2457c18.9873-15.3433,39.7434-28.5768,61.9485-39.3171
			c17.1758,64.7188,51.3146,122.5544,97.4083,168.4776c-19.797,13.532-41.171,24.8903-63.8237,33.7339
			c-6.1332-3.8109-12.0476-7.9407-17.72-12.3661c4.4254,5.6724,8.5552,11.5868,12.3661,17.72
			c-8.8436,22.6527-20.2019,44.0267-33.7338,63.8237c-45.9232-46.0938-103.7589-80.2325-168.4778-97.4084
			c10.7404-22.2051,23.9739-42.9612,39.3171-61.9485C1479.254,1030.5457,1519.0659,1046.1174,1551.1429,1071.1428z"/>
		<path id="path138" fill="none" stroke="#000000" stroke-width="7.0346" stroke-miterlimit="10" d="M1008.8572,1071.1428
			c32.077-25.0254,71.8889-40.5972,115.2458-42.5308c15.3433,18.9873,28.5768,39.7434,39.317,61.9485
			c-64.7188,17.1759-122.5543,51.3147-168.4777,97.4084c-13.5319-19.797-24.8902-41.171-33.7339-63.8237
			c3.811-6.1332,7.9407-12.0476,12.3661-17.72c-5.6724,4.4254-11.5868,8.5552-17.72,12.3661
			c-22.6526-8.8436-44.0267-20.2019-63.8238-33.7339c46.0938-45.9232,80.2325-103.7589,97.4085-168.4777
			c22.2051,10.7403,42.9611,23.9739,61.9484,39.3171C1049.4545,999.254,1033.8827,1039.0658,1008.8572,1071.1428z"/>
		<path id="path140" fill="none" stroke="#000000" stroke-width="7.0346" stroke-miterlimit="10" d="M1008.8572,528.8572
			c25.0253,32.077,40.5972,71.8889,42.5308,115.2457c-18.9873,15.3433-39.7433,28.5768-61.9485,39.3171
			c-17.176-64.7188-51.3148-122.5543-97.4085-168.4777c19.7971-13.532,41.1711-24.8902,63.8238-33.7339
			c6.1332,3.811,12.0476,7.9407,17.72,12.3661c-4.4254-5.6724-8.5552-11.5868-12.3661-17.72
			c8.8437-22.6526,20.202-44.0267,33.7339-63.8238c45.9232,46.0938,103.7589,80.2325,168.4777,97.4084
			c-10.7402,22.2051-23.9739,42.9612-39.317,61.9485C1080.7461,569.4545,1040.9341,553.8827,1008.8572,528.8572z"/>
		<path id="path6743_2_" fill="none" stroke="#000000" stroke-width="7.0346" stroke-miterlimit="10" d="M1280,467.9195
			c6.9404,0.456,13.943,0.6897,21.004,0.6897c7.9061,0,15.7483-0.2983,23.5051-0.8737c18.1136-1.2999,35.7798-4.1342,52.9343-8.3535
			c59.6257-14.6187,112.6665-45.9659,153.8802-88.7992c12.3599,12.8287,23.6329,26.7016,33.7339,41.4482
			c-45.9232,46.0938-103.7589,80.2325-168.4778,97.4084c-17.4742,4.6457-35.46,8.0339-53.8506,10.101
			c-13.7024,1.5344-27.6179,2.3441-41.7252,2.3441c-2.4293,0-4.8588-0.0426-7.2667-0.0853
			c-4.7836-4.174-9.3677-8.5674-13.7373-13.1649c-4.3695,4.5975-8.9536,8.9909-13.7372,13.1649
			c-2.4081,0.0427-4.8374,0.0853-7.2668,0.0853c-14.1073,0-28.0228-0.8098-41.7252-2.3441
			c-18.3906-2.0671-36.3762-5.4554-53.8506-10.101c-64.7188-17.176-122.5543-51.3148-168.4777-97.4085
			c10.101-14.7466,21.3741-28.6194,33.7339-41.4482c41.2136,42.8333,94.2545,74.1805,153.8801,88.7992
			c17.1548,4.2194,34.8207,7.0536,52.9343,8.3535c7.7568,0.5754,15.599,0.8737,23.505,0.8737
			C1266.057,468.6092,1273.0597,468.3755,1280,467.9195z"/>
		<path id="path143" fill="none" stroke="#000000" stroke-width="7.0346" stroke-miterlimit="10" d="M1612.0804,800
			c-0.4561,6.9404-0.6897,13.943-0.6897,21.004c0,7.9061,0.2983,15.7482,0.8737,23.5051
			c1.2999,18.1136,4.1342,35.7797,8.3536,52.9343c14.6187,59.6257,45.9658,112.6664,88.7992,153.8801
			c-12.8287,12.3599-26.7015,23.6329-41.4481,33.7339c-46.0939-45.9232-80.2327-103.7589-97.4084-168.4777
			c-4.6456-17.4743-8.0339-35.46-10.101-53.8506c-1.5343-13.7024-2.3441-27.6179-2.3441-41.7252
			c0-2.4294,0.0426-4.8588,0.0852-7.2668c4.1741-4.7836,8.5675-9.3677,13.165-13.7373c-4.5975-4.3695-8.991-8.9536-13.165-13.7372
			c-0.0426-2.4081-0.0852-4.8374-0.0852-7.2668c0-14.1073,0.8098-28.0228,2.3441-41.7252
			c2.067-18.3906,5.4553-36.3763,10.101-53.8506c17.1758-64.7188,51.3146-122.5543,97.4084-168.4777
			c14.7466,10.101,28.6194,21.3741,41.4481,33.7339c-42.8334,41.2137-74.1805,94.2545-88.7992,153.8801
			c-4.2195,17.1547-7.0537,34.8207-8.3536,52.9343c-0.5753,7.7568-0.8737,15.599-0.8737,23.505
			C1611.3907,786.057,1611.6244,793.0596,1612.0804,800z"/>
		<path id="path145" fill="none" stroke="#000000" stroke-width="7.0346" stroke-miterlimit="10" d="M1280,1132.0804
			c-6.9404-0.4561-13.943-0.6897-21.004-0.6897c-7.906,0-15.7482,0.2983-23.505,0.8737
			c-18.1135,1.2999-35.7797,4.1342-52.9343,8.3536c-59.6256,14.6187-112.6665,45.9658-153.8801,88.7992
			c-12.3599-12.8287-23.6329-26.7015-33.7339-41.4481c45.9232-46.0939,103.7589-80.2327,168.4777-97.4086
			c17.4744-4.6456,35.4601-8.0339,53.8506-10.101c13.7024-1.5343,27.6179-2.3441,41.7252-2.3441
			c2.4294,0,4.8588,0.0426,7.2668,0.0852c4.7836,4.1741,9.3677,8.5675,13.7372,13.165c4.3696-4.5975,8.9536-8.991,13.7373-13.165
			c2.408-0.0426,4.8374-0.0852,7.2667-0.0852c14.1072,0,28.0228,0.8098,41.7252,2.3441c18.3906,2.067,36.3763,5.4553,53.8506,10.101
			c64.7189,17.1759,122.5544,51.3147,168.4778,97.4086c-10.101,14.7466-21.374,28.6194-33.7339,41.4481
			c-41.2137-42.8334-94.2546-74.1805-153.8802-88.7992c-17.1547-4.2195-34.8207-7.0537-52.9343-8.3536
			c-7.7568-0.5753-15.599-0.8737-23.5051-0.8737C1293.943,1131.3907,1286.9404,1131.6244,1280,1132.0804z"/>
		<path id="path147" fill="none" stroke="#000000" stroke-width="7.0346" stroke-miterlimit="10" d="M947.9196,800
			c0.456-6.9404,0.6897-13.943,0.6897-21.004c0-7.906-0.2983-15.7482-0.8737-23.505c-1.2999-18.1136-4.1342-35.7797-8.3535-52.9343
			c-14.6187-59.6257-45.9659-112.6664-88.7992-153.8801c12.8287-12.3599,26.7016-23.6329,41.4482-33.7339
			c46.0938,45.9233,80.2326,103.7589,97.4085,168.4777c4.6456,17.4743,8.0339,35.46,10.101,53.8506
			c1.5344,13.7024,2.3441,27.6179,2.3441,41.7252c0,2.4294-0.0426,4.8587-0.0853,7.2668
			c-4.174,4.7836-8.5674,9.3677-13.1649,13.7372c4.5975,4.3696,8.9909,8.9537,13.1649,13.7373
			c0.0427,2.408,0.0853,4.8374,0.0853,7.2668c0,14.1072-0.8098,28.0228-2.3441,41.7252
			c-2.0671,18.3906-5.4554,36.3763-10.101,53.8506c-17.176,64.7188-51.3148,122.5543-97.4085,168.4777
			c-14.7466-10.101-28.6194-21.374-41.4482-33.7339c42.8333-41.2137,74.1805-94.2545,88.7991-153.8801
			c4.2194-17.1547,7.0536-34.8207,8.3535-52.9343c0.5754-7.7569,0.8737-15.599,0.8737-23.5051
			C948.6093,813.943,948.3755,806.9404,947.9196,800z"/>
		<path id="path6747_2_" fill="none" stroke="#000000" stroke-width="7.0346" stroke-miterlimit="10" d="M1301.0042,219.2813
			c-3.5375,0-7.0323,0.0639-10.5272,0.1492c21.6298-19.7119,47.5641-34.7781,76.2263-43.6644
			c-8.9929,14.64-17.0269,29.962-23.9739,45.8594C1329.027,220.0911,1315.1113,219.2813,1301.0042,219.2813z"/>
		<path id="path6747_8_" fill="none" stroke="#000000" stroke-width="7.0346" stroke-miterlimit="10" d="M699.2813,778.996
			c0,3.5375,0.0639,7.0323,0.1492,10.5272c-19.7119-21.6298-34.7781-47.5641-43.6644-76.2263
			c14.64,8.9929,29.962,17.0268,45.8594,23.9739C700.0911,750.9732,699.2813,764.8887,699.2813,778.996z"/>
		<path id="path6747_6_" fill="none" stroke="#000000" stroke-width="7.0346" stroke-miterlimit="10" d="M1258.9961,1380.7188
			c3.5375,0,7.0322-0.064,10.5272-0.1492c-21.6299,19.7119-47.5641,34.7781-76.2263,43.6644
			c8.9929-14.64,17.0267-29.962,23.9739-45.8594C1230.9733,1379.9089,1244.8888,1380.7188,1258.9961,1380.7188z"/>
		<path id="path6747_4_" fill="none" stroke="#000000" stroke-width="7.0346" stroke-miterlimit="10" d="M1860.7188,821.0041
			c0-3.5375-0.064-7.0323-0.1492-10.5272c19.7119,21.6298,34.7781,47.5641,43.6644,76.2263
			c-14.64-8.9929-29.962-17.0268-45.8594-23.9739C1859.9089,849.0269,1860.7188,835.1113,1860.7188,821.0041z"/>
		<path id="path6747_3_" fill="none" stroke="#000000" stroke-width="7.0346" stroke-miterlimit="10" d="M1860.7188,778.996
			c0,3.5375-0.064,7.0323-0.1492,10.5272c19.7119-21.6298,34.7781-47.5641,43.6644-76.2263
			c-14.64,8.9929-29.962,17.0268-45.8594,23.9739C1859.9089,750.9732,1860.7188,764.8887,1860.7188,778.996z"/>
		<path id="path6747_9_" fill="none" stroke="#000000" stroke-width="7.0346" stroke-miterlimit="10" d="M1258.9961,219.2813
			c3.5375,0,7.0322,0.0639,10.5272,0.1492c-21.6299-19.7119-47.5641-34.7781-76.2263-43.6644
			c8.9929,14.64,17.0267,29.962,23.9739,45.8594C1230.9733,220.0911,1244.8888,219.2813,1258.9961,219.2813z"/>
		<path id="path6747_7_" fill="none" stroke="#000000" stroke-width="7.0346" stroke-miterlimit="10" d="M699.2813,821.0041
			c0-3.5375,0.0639-7.0323,0.1492-10.5272c-19.7119,21.6298-34.7781,47.5641-43.6644,76.2263
			c14.64-8.9929,29.962-17.0268,45.8594-23.9739C700.0911,849.0269,699.2813,835.1113,699.2813,821.0041z"/>
		<path id="path6747_5_" fill="none" stroke="#000000" stroke-width="7.0346" stroke-miterlimit="10" d="M1301.0042,1380.7188
			c-3.5375,0-7.0323-0.064-10.5272-0.1492c21.6298,19.7119,47.5641,34.7781,76.2263,43.6644
			c-8.9929-14.64-17.0269-29.962-23.9739-45.8594C1329.027,1379.9089,1315.1113,1380.7188,1301.0042,1380.7188z"/>
		<path id="path6751_2_" fill="none" stroke="#000000" stroke-width="7.0346" stroke-miterlimit="10" d="M1396.58,231.7264
			c11.2517-23.2706,25.2311-44.9643,41.5121-64.6762c68.3628,3.7719,127.6476,41.4482,161.3813,96.5135
			c-8.9503,23.292-20.543,45.2627-34.4158,65.5712C1519.1344,283.0411,1461.2987,248.9023,1396.58,231.7264z"/>
		<path id="path6751_9_" fill="none" stroke="#000000" stroke-width="7.0346" stroke-miterlimit="10" d="M711.7264,683.4202
			c-23.2706-11.2518-44.9643-25.2311-64.6762-41.5121c3.7719-68.3629,41.4482-127.6475,96.5135-161.3814
			c23.292,8.9502,45.2627,20.5429,65.5712,34.4158C763.0411,560.8658,728.9023,618.7015,711.7264,683.4202z"/>
		<path id="path6751_7_" fill="none" stroke="#000000" stroke-width="7.0346" stroke-miterlimit="10" d="M1163.4203,1368.2737
			c-11.2518,23.2706-25.2311,44.9644-41.5121,64.6761c-68.3629-3.7719-127.6475-41.4481-161.3814-96.5134
			c8.9502-23.292,20.5429-45.2627,34.4158-65.5712C1040.8657,1316.959,1098.7014,1351.0978,1163.4203,1368.2737z"/>
		<path id="path6751_5_" fill="none" stroke="#000000" stroke-width="7.0346" stroke-miterlimit="10" d="M1848.2737,916.5799
			c23.2706,11.2517,44.9644,25.2311,64.6761,41.5121c-3.7719,68.3627-41.4481,127.6475-96.5134,161.3814
			c-23.292-8.9503-45.2627-20.543-65.5712-34.4159C1796.959,1039.1343,1831.0978,981.2987,1848.2737,916.5799z"/>
		<path id="path6751_4_" fill="none" stroke="#000000" stroke-width="7.0346" stroke-miterlimit="10" d="M1848.2737,683.4202
			c23.2706-11.2518,44.9644-25.2311,64.6761-41.5121c-3.7719-68.3629-41.4481-127.6475-96.5134-161.3814
			c-23.292,8.9502-45.2627,20.5429-65.5712,34.4158C1796.959,560.8658,1831.0978,618.7015,1848.2737,683.4202z"/>
		<path id="path6751_10_" fill="none" stroke="#000000" stroke-width="7.0346" stroke-miterlimit="10" d="M1163.4203,231.7264
			c-11.2518-23.2706-25.2311-44.9643-41.5121-64.6762c-68.3629,3.7719-127.6475,41.4482-161.3814,96.5135
			c8.9502,23.292,20.5429,45.2627,34.4158,65.5712C1040.8657,283.0411,1098.7014,248.9023,1163.4203,231.7264z"/>
		<path id="path6751_8_" fill="none" stroke="#000000" stroke-width="7.0346" stroke-miterlimit="10" d="M711.7264,916.5799
			c-23.2706,11.2517-44.9643,25.2311-64.6762,41.5121c3.7719,68.3627,41.4482,127.6475,96.5135,161.3814
			c23.292-8.9503,45.2627-20.543,65.5712-34.4159C763.0411,1039.1343,728.9023,981.2987,711.7264,916.5799z"/>
		<path id="path6751_6_" fill="none" stroke="#000000" stroke-width="7.0346" stroke-miterlimit="10" d="M1396.58,1368.2737
			c11.2517,23.2706,25.2311,44.9644,41.5121,64.6761c68.3628-3.7719,127.6476-41.4481,161.3813-96.5134
			c-8.9503-23.292-20.543-45.2627-34.4158-65.5712C1519.1344,1316.959,1461.2987,1351.0978,1396.58,1368.2737z"/>
		<path id="path6755_2_" fill="none" stroke="#000000" stroke-width="7.0346" stroke-miterlimit="10" d="M1280,273.2429
			c6.9441-0.4546,13.9481-0.6865,21.0042-0.6865c7.906,0,15.748,0.2983,23.505,0.8737c-8.3536,30.9849-12.85,63.5467-12.85,97.1528
			s4.4963,66.1679,12.85,97.1528c-7.757,0.5754-15.599,0.8737-23.505,0.8737c-7.0612,0-14.0637-0.2337-21.0042-0.6897
			c-6.9404,0.456-13.943,0.6897-21.004,0.6897c-7.906,0-15.7482-0.2983-23.505-0.8737c8.3535-30.9849,12.85-63.5467,12.85-97.1528
			s-4.4965-66.1679-12.85-97.1528c7.7568-0.5754,15.599-0.8737,23.505-0.8737C1266.0519,272.5564,1273.056,272.7883,1280,273.2429z"
			/>
		<path id="path166" fill="none" stroke="#000000" stroke-width="7.0346" stroke-miterlimit="10" d="M1806.7572,800
			c0.4546,6.9441,0.6865,13.9481,0.6865,21.0041c0,7.906-0.2983,15.7481-0.8738,23.505c-30.9849-8.3536-63.5466-12.85-97.1527-12.85
			s-66.1678,4.4964-97.1528,12.85c-0.5753-7.7569-0.8737-15.599-0.8737-23.505c0-7.0611,0.2336-14.0637,0.6897-21.0041
			c-0.4561-6.9404-0.6897-13.943-0.6897-21.004c0-7.906,0.2983-15.7482,0.8737-23.505c30.985,8.3535,63.5468,12.85,97.1528,12.85
			s66.1678-4.4965,97.1527-12.85c0.5754,7.7568,0.8738,15.599,0.8738,23.505C1807.4437,786.0519,1807.2118,793.056,1806.7572,800z"
			/>
		<path id="path168" fill="none" stroke="#000000" stroke-width="7.0346" stroke-miterlimit="10" d="M1280,1326.7572
			c-6.944,0.4546-13.9481,0.6865-21.004,0.6865c-7.906,0-15.7482-0.2983-23.505-0.8738c8.3535-30.9849,12.85-63.5466,12.85-97.1527
			s-4.4965-66.1678-12.85-97.1528c7.7568-0.5753,15.599-0.8737,23.505-0.8737c7.061,0,14.0637,0.2336,21.004,0.6897
			c6.9404-0.4561,13.943-0.6897,21.0042-0.6897c7.906,0,15.748,0.2983,23.505,0.8737c-8.3536,30.985-12.85,63.5468-12.85,97.1528
			s4.4963,66.1678,12.85,97.1527c-7.757,0.5754-15.599,0.8738-23.505,0.8738
			C1293.9481,1327.4437,1286.9441,1327.2118,1280,1326.7572z"/>
		<path id="path170" fill="none" stroke="#000000" stroke-width="7.0346" stroke-miterlimit="10" d="M753.2429,800
			c-0.4546-6.944-0.6865-13.9481-0.6865-21.004c0-7.906,0.2983-15.7482,0.8737-23.505c30.9849,8.3535,63.5467,12.85,97.1528,12.85
			c33.6061,0,66.1678-4.4965,97.1528-12.85c0.5754,7.7568,0.8737,15.599,0.8737,23.505c0,7.061-0.2337,14.0637-0.6897,21.004
			c0.456,6.9404,0.6897,13.943,0.6897,21.0041c0,7.906-0.2983,15.7481-0.8737,23.505c-30.9849-8.3536-63.5467-12.85-97.1528-12.85
			c-33.6061,0-66.1679,4.4964-97.1528,12.85c-0.5754-7.7569-0.8737-15.599-0.8737-23.505
			C752.5564,813.9481,752.7883,806.9441,753.2429,800z"/>
		<path id="path6759_2_" fill="none" stroke="#000000" stroke-width="7.0346" stroke-miterlimit="10" d="M1311.6592,370.5831
			c0-33.606,4.4963-66.1679,12.85-97.1528c4.816-17.8365,10.9321-35.1404,18.2202-51.8049
			c6.947-15.8974,14.981-31.2193,23.9739-45.8594c18.9659-5.8816,39.1254-9.0568,60.0305-9.0568
			c3.8146,0,7.6078,0.1279,11.3583,0.341c-16.2809,19.7119-30.2604,41.4055-41.5121,64.6762
			c-7.7142,15.9826-14.1285,32.711-19.1365,50.0574c-8.1404,28.1933-12.5089,57.9848-12.5089,88.7992
			s4.3685,60.6059,12.5089,88.7992c-17.1547,4.2194-34.8207,7.0536-52.9343,8.3535
			C1316.1555,436.751,1311.6592,404.1891,1311.6592,370.5831z"/>
		<path id="path6759_8_" fill="none" stroke="#000000" stroke-width="7.0346" stroke-miterlimit="10" d="M850.5831,768.3409
			c-33.606,0-66.1679-4.4965-97.1528-12.85c-17.8365-4.8161-35.1404-10.9321-51.8049-18.2202
			c-15.8974-6.9471-31.2193-14.981-45.8594-23.9739c-5.8816-18.966-9.0568-39.1254-9.0568-60.0306
			c0-3.8145,0.1279-7.6077,0.341-11.3583c19.7119,16.2809,41.4055,30.2604,64.6762,41.5121
			c15.9826,7.7142,32.711,14.1286,50.0574,19.1365c28.1933,8.1404,57.9848,12.509,88.7992,12.509
			c30.8143,0,60.6058-4.3686,88.7991-12.509c4.2194,17.1547,7.0536,34.8207,8.3535,52.9343
			C916.751,763.8445,884.189,768.3409,850.5831,768.3409z"/>
		<path id="path6759_6_" fill="none" stroke="#000000" stroke-width="7.0346" stroke-miterlimit="10" d="M1248.3409,1229.417
			c0,33.6061-4.4966,66.1678-12.85,97.1527c-4.8162,17.8365-10.9321,35.1404-18.2202,51.8049
			c-6.9471,15.8973-14.9811,31.2194-23.9739,45.8594c-18.9661,5.8816-39.1255,9.0568-60.0306,9.0568
			c-3.8145,0-7.6077-0.1278-11.3583-0.3409c16.2809-19.7119,30.2604-41.4055,41.5121-64.6761
			c7.7142-15.9827,14.1287-32.7111,19.1365-50.0575c8.1404-28.1932,12.509-57.9847,12.509-88.7992s-4.3687-60.606-12.509-88.7992
			c17.1548-4.2194,34.8207-7.0537,52.9343-8.3535C1243.8445,1163.2491,1248.3409,1195.8109,1248.3409,1229.417z"/>
		<path id="path6759_4_" fill="none" stroke="#000000" stroke-width="7.0346" stroke-miterlimit="10" d="M1709.417,831.6591
			c33.6061,0,66.1678,4.4964,97.1527,12.85c17.8365,4.8161,35.1404,10.9321,51.8049,18.2202
			c15.8973,6.9471,31.2194,14.981,45.8594,23.9739c5.8816,18.966,9.0568,39.1254,9.0568,60.0306
			c0,3.8145-0.1278,7.6077-0.3409,11.3583c-19.7119-16.2809-41.4055-30.2604-64.6761-41.5121
			c-15.9827-7.7143-32.7111-14.1286-50.0575-19.1365c-28.1932-8.1404-57.9847-12.509-88.7992-12.509s-60.606,4.3686-88.7992,12.509
			c-4.2194-17.1547-7.0537-34.8207-8.3535-52.9343C1643.2491,836.1555,1675.8109,831.6591,1709.417,831.6591z"/>
		<path id="path6759_3_" fill="none" stroke="#000000" stroke-width="7.0346" stroke-miterlimit="10" d="M1709.417,768.3409
			c33.6061,0,66.1678-4.4965,97.1527-12.85c17.8365-4.8161,35.1404-10.9321,51.8049-18.2202
			c15.8973-6.9471,31.2194-14.981,45.8594-23.9739c5.8816-18.966,9.0568-39.1254,9.0568-60.0306
			c0-3.8145-0.1278-7.6077-0.3409-11.3583c-19.7119,16.2809-41.4055,30.2604-64.6761,41.5121
			c-15.9827,7.7142-32.7111,14.1286-50.0575,19.1365c-28.1932,8.1404-57.9847,12.509-88.7992,12.509s-60.606-4.3686-88.7992-12.509
			c-4.2194,17.1547-7.0537,34.8207-8.3535,52.9343C1643.2491,763.8445,1675.8109,768.3409,1709.417,768.3409z"/>
		<path id="path6759_9_" fill="none" stroke="#000000" stroke-width="7.0346" stroke-miterlimit="10" d="M1248.3409,370.5831
			c0-33.606-4.4966-66.1679-12.85-97.1528c-4.8162-17.8365-10.9321-35.1404-18.2202-51.8049
			c-6.9471-15.8974-14.9811-31.2193-23.9739-45.8594c-18.9661-5.8816-39.1255-9.0568-60.0306-9.0568
			c-3.8145,0-7.6077,0.1279-11.3583,0.341c16.2809,19.7119,30.2604,41.4055,41.5121,64.6762
			c7.7142,15.9826,14.1287,32.711,19.1365,50.0574c8.1404,28.1933,12.509,57.9848,12.509,88.7992s-4.3687,60.6059-12.509,88.7992
			c17.1548,4.2194,34.8207,7.0536,52.9343,8.3535C1243.8445,436.751,1248.3409,404.1891,1248.3409,370.5831z"/>
		<path id="path6759_7_" fill="none" stroke="#000000" stroke-width="7.0346" stroke-miterlimit="10" d="M850.5831,831.6591
			c-33.606,0-66.1679,4.4964-97.1528,12.85c-17.8365,4.8161-35.1404,10.9321-51.8049,18.2202
			c-15.8974,6.9471-31.2193,14.981-45.8594,23.9739c-5.8816,18.966-9.0568,39.1254-9.0568,60.0306
			c0,3.8145,0.1279,7.6077,0.341,11.3583c19.7119-16.2809,41.4055-30.2604,64.6762-41.5121
			c15.9826-7.7143,32.711-14.1286,50.0574-19.1365c28.1933-8.1404,57.9848-12.509,88.7992-12.509
			c30.8143,0,60.6058,4.3686,88.7991,12.509c4.2194-17.1547,7.0536-34.8207,8.3535-52.9343
			C916.751,836.1555,884.189,831.6591,850.5831,831.6591z"/>
		<path id="path6759_5_" fill="none" stroke="#000000" stroke-width="7.0346" stroke-miterlimit="10" d="M1311.6592,1229.417
			c0,33.6061,4.4963,66.1678,12.85,97.1527c4.816,17.8365,10.9321,35.1404,18.2202,51.8049
			c6.947,15.8973,14.981,31.2194,23.9739,45.8594c18.9659,5.8816,39.1254,9.0568,60.0305,9.0568
			c3.8146,0,7.6078-0.1278,11.3583-0.3409c-16.2809-19.7119-30.2604-41.4055-41.5121-64.6761
			c-7.7142-15.9827-14.1285-32.7111-19.1365-50.0575c-8.1404-28.1932-12.5089-57.9847-12.5089-88.7992
			s4.3685-60.606,12.5089-88.7992c-17.1547-4.2194-34.8207-7.0537-52.9343-8.3535
			C1316.1555,1163.2491,1311.6592,1195.8109,1311.6592,1229.417z"/>
		<path id="path6763_2_" fill="none" stroke="#000000" stroke-width="7.0346" stroke-miterlimit="10" d="M1364.9344,370.5829
			c0-30.8144,4.3685-60.606,12.5089-88.7992c59.6257,14.6187,112.6665,45.9659,153.8802,88.7992
			c-41.2137,42.8333-94.2546,74.1805-153.8802,88.7992C1369.303,431.1888,1364.9344,401.3973,1364.9344,370.5829z"/>
		<path id="path6763_8_" fill="none" stroke="#000000" stroke-width="7.0346" stroke-miterlimit="10" d="M850.5829,715.0657
			c-30.8144,0-60.606-4.3686-88.7992-12.509c14.6187-59.6257,45.9659-112.6664,88.7992-153.8801
			c42.8333,41.2137,74.1805,94.2545,88.7991,153.8801C911.1887,710.6971,881.3973,715.0657,850.5829,715.0657z"/>
		<path id="path6763_6_" fill="none" stroke="#000000" stroke-width="7.0346" stroke-miterlimit="10" d="M1195.0657,1229.4172
			c0,30.8145-4.3685,60.606-12.5089,88.7992c-59.6257-14.6188-112.6665-45.9659-153.8802-88.7992
			c41.2137-42.8334,94.2546-74.1805,153.8802-88.7992C1190.6971,1168.8113,1195.0657,1198.6028,1195.0657,1229.4172z"/>
		<path id="path6763_4_" fill="none" stroke="#000000" stroke-width="7.0346" stroke-miterlimit="10" d="M1709.4172,884.9344
			c30.8145,0,60.606,4.3685,88.7992,12.509c-14.6188,59.6257-45.9659,112.6664-88.7992,153.8801
			c-42.8334-41.2137-74.1805-94.2545-88.7992-153.8801C1648.8113,889.3029,1678.6028,884.9344,1709.4172,884.9344z"/>
		<path id="path6763_3_" fill="none" stroke="#000000" stroke-width="7.0346" stroke-miterlimit="10" d="M1709.4172,715.0657
			c30.8145,0,60.606-4.3686,88.7992-12.509c-14.6188-59.6257-45.9659-112.6664-88.7992-153.8801
			c-42.8334,41.2137-74.1805,94.2545-88.7992,153.8801C1648.8113,710.6971,1678.6028,715.0657,1709.4172,715.0657z"/>
		<path id="path6763_9_" fill="none" stroke="#000000" stroke-width="7.0346" stroke-miterlimit="10" d="M1195.0657,370.5829
			c0-30.8144-4.3685-60.606-12.5089-88.7992c-59.6257,14.6187-112.6665,45.9659-153.8802,88.7992
			c41.2137,42.8333,94.2546,74.1805,153.8802,88.7992C1190.6971,431.1888,1195.0657,401.3973,1195.0657,370.5829z"/>
		<path id="path6763_7_" fill="none" stroke="#000000" stroke-width="7.0346" stroke-miterlimit="10" d="M850.5829,884.9344
			c-30.8144,0-60.606,4.3685-88.7992,12.509c14.6187,59.6257,45.9659,112.6664,88.7992,153.8801
			c42.8333-41.2137,74.1805-94.2545,88.7991-153.8801C911.1887,889.3029,881.3973,884.9344,850.5829,884.9344z"/>
		<path id="path6763_5_" fill="none" stroke="#000000" stroke-width="7.0346" stroke-miterlimit="10" d="M1364.9344,1229.4172
			c0,30.8145,4.3685,60.606,12.5089,88.7992c59.6257-14.6188,112.6665-45.9659,153.8802-88.7992
			c-41.2137-42.8334-94.2546-74.1805-153.8802-88.7992C1369.303,1168.8113,1364.9344,1198.6028,1364.9344,1229.4172z"/>
	</g>
</g>
</svg>
